<svg version="1" xmlns="http://www.w3.org/2000/svg" width="1504" height="1504" viewBox="0 0 1128.000000 1128.000000"><path d="M431 140.6c-9.6 3.5-18.6 6.9-20 7.3-7.8 2.7-29.7 14.1-38.9 20.2-17.5 11.8-45.5 32.5-54.6 40.4-3.6 3.2-6.5 4.9-7.7 4.7-1.3-.2-1.9.1-1.6 1 .6 1.5-1.4 4.2-7.8 11-3.9 4.1-17.4 23-17.4 24.4 0 .3-1.3 2.4-2.9 4.7-3.3 4.8-5 8.3-13.2 26.2-3.3 7.1-6.9 13.8-8 14.8-2.5 2.3-5.4 1.6-4-1.1 1.3-2.4 4.2-14 4.6-18.2.2-1.9.4-3.5.5-3.5 1.1 0 1.6-38.1.6-46.5-.5-4.3-.8-7.3-2.2-29.5-.3-5.5-.7-10.2-.9-10.5-1.3-2.4-2.3-23.6-1.2-29 .5-3-.8-6-2.7-6-1.5 0-3.3 5.8-5 16.1-1.4 8.2-2.7 13.1-9.1 32.9-4.8 14.9-9.4 30.7-10.1 34.5-.2 1.6-.8 3.9-1.1 5-.7 2.3-.8 2.7-1.9 11.5-1.3 10-1.1 39.4.4 50 .7 5.2 1.5 12.6 1.8 16.5.3 3.8.7 8.9.9 11.2.3 3.6-.3 5-4.6 10.8-10.8 14.9-22.9 44.7-28.4 70.5-1.1 5.1-5.8 19.7-6.6 20.4-1.2 1.3-1.2-.6.2-4.1.6-1.5 1.2-4.6 1.5-6.8.2-2.2.7-5.4.9-7 .5-3.4.6-28.2 0-33.5-.6-6.5-2.4-13.5-6-24-3.7-10.9-4.8-13.4-9.5-23.5-6.4-13.5-9.2-21.6-10.4-30.5-.8-5.5-1.4-9.3-2.6-14.5-.5-2.2-1-8.2-1-13.3 0-7-.3-9.3-1.2-9-1.3.4-3.3 5.5-4.2 10.1-.2 1.2-.9 4.2-1.6 6.7-.7 2.5-1.3 5.2-1.5 6-.2.8-1.2 5.3-2.3 10-3.5 14.5-4.6 23-4.6 37.5-.1 14.4.6 24.3 2.3 33 1.8 8.6 2 9.6 3.7 15.4.9 3.1 1.7 6 1.8 6.6.4 1.9 1.7 6 2.6 8 .5 1.1 2 5.3 3.4 9.3 2.5 7.1 8.5 21.5 13.3 32.2 6.8 15 8.7 23.8 7.8 35.8-.4 4.8-.9 9.5-1.2 10.5-.5 2-1.6 1.5-1.9-.8-.9-6.2-1.5-9.6-2.3-13-.6-2.2-1-4-1-4s-.2-.7-.4-1.5c-.3-.8-1-4.7-1.7-8.5-1.4-7.9-5.3-22.9-7.7-29.2-.8-2.3-1.5-4.6-1.5-5 0-1.3-5.8-8.3-12.3-14.9-5.8-5.8-19-20-27.3-29.3-4.5-5-6.4-10.1-6.8-18.1-.1-3-.5-8.4-.8-12-.3-3.6-.8-9.4-1.1-12.9-.3-3.6-1-8.2-1.4-10.2-.5-2.1-.7-4-.4-4.2.2-.3-.1-2.5-.7-4.8-1.7-6.1-2.1-8-2.7-11.1-1-5.5-3.1-4-5.7 4.1-1.4 4.4-2.7 9.2-3 10.8-.2 1.5-.5 2.8-.6 2.8-.9 0-2.3 18.3-2.3 31-.1 20.8 2.2 31.6 9.9 46.9 10.6 20.9 19.5 30.3 32.9 34.6 2.2.7 5 2 6.2 2.7 2 1.3 2.1 1.7.8 3-.8.8-1.5 2.1-1.5 2.8 0 3.3 4.4 2.7 5.3-.6.5-1.7.9-1.9 2.5-1 4.4 2.4 14.4 16.4 15.6 22.1.3 1.4 1.2 5.2 2.1 8.5.8 3.3 1.7 7.8 2 10 .4 2.2 1 5.3 1.4 7 .8 3.1.6 24.1-.2 28.5-.3 1.4-.6 4.5-.6 6.9-.1 4.5-1.1 5-1.7.9-.2-1.3-.8-4.3-1.5-6.8-.6-2.5-1.2-5.2-1.4-6-.2-.8-.4-1.5-.5-1.5-.1 0-.3-.7-.5-1.6-1.8-9.4-4.8-7.3-5.9 4.1-.9 8.4-4.2 24.8-6.6 32.5-1.8 5.7-4 15.6-4.4 20-.1 1.1-.4 2.4-.7 3-1.7 3-1.6 28.2.1 34.5.7 2.5 1.4 5.4 1.6 6.5 1.2 6.6 3 12.4 4.5 15 1 1.6 2.3 3.8 2.9 4.7.6 1 .7 1.8.3 1.8-1.5 0-41.7-40.5-44.8-45-1.6-2.5-3.6-5.1-4.2-5.8-.7-.7-1.7-2.1-2.3-3-.9-1.6-1.1-1.6-2.4 0-1.3 1.8-1.1 3.7 2.3 14.6.5 1.8 1 3.5 1 3.7-.2 5.2 8.4 29.7 14 40.5 1.3 2.5 2.3 4.6 2.2 4.8-.5.8 18.1 27.6 23.1 33.3 1.3 1.5 4.3 5.1 6.8 8 12.6 15.1 22 22.7 32.7 26.9 3.2 1.2 6.7 2.6 7.8 3 1.1.4 4.9 1.8 8.5 3 7.6 2.6 19.2 7.7 20 8.8.3.5 2.6 2 5.2 3.5 4.2 2.4 9.3 8.4 11.1 12.9.7 1.9 10.8 16.7 14.4 21.1 1.3 1.6 2.3 3.6 2.3 4.4 0 1.4-.2 1.4-1.7.1-1-.8-3.8-2.5-6.3-3.6-7.1-3.4-9.3-5.2-15.6-12.7-6.2-7.3-6.9-8.1-14.9-16.5-5.9-6.3-14.7-10.7-22.6-11.3-3-.3-5.4-.6-5.4-.7 0-.1-1.1-.3-2.5-.5-12-1.4-21.5-3.1-32.2-5.6-10.6-2.5-17-3.2-18.8-2-1.2.8-1.1 1.3.9 3 1.3 1.2 2.7 2.1 3.1 2.1.4 0 7 6.2 14.6 13.8 16.8 16.7 24.6 21.6 37.6 23.7 2.4.4 5.7.9 7.3 1.2 1.7.2 5.3.6 8 .8 13.6.9 29.9 6.4 49.1 16.5 12.3 6.5 16.4 9.4 16.4 11.7 0 1.7.5 1.7-7.1-1.3-15-5.9-19.4-7.1-21.9-6.2-2.5 1-2.4 1 3 5.6 3 2.6 11.4 10.5 18.5 17.7 7.2 7.1 15.5 15.2 18.5 17.8 8.7 7.6 43.5 31 55.4 37.2 18.9 9.8 29.2 12.4 52.1 12.9 5.5.1 10.6.5 11.3 1 1.3.8 1.7 2.7.5 2.4-1-.2-5.3 1-12.8 3.4-3.3 1.1-7.1 2.1-8.5 2.3-1.4.3-3.4.6-4.5.8-7.3 1.6-12.4 2.1-22.5 2.2-6.3.1-15.3.6-20 1-4.7.5-8.9.8-9.4.6-1.4-.3-12.9-.1-16.1.4-4.4.6-11.6 2.5-15 4-1.7.8-4.1 1.8-5.5 2.3-4 1.6-19.4 11.2-20.2 12.7-1.1 1.9.4 2.6 3.8 1.6 1.6-.4 4.5-.4 6.4 0 1.9.4 4.9 1 6.6 1.3 1.6.3 5.9 1.5 9.5 2.7 3.5 1.1 7.1 2.2 7.9 2.4.8.2 4.3 1 7.7 1.9 26 6.8 60.8 2 83.6-11.5 4.2-2.5 10.8-8.1 17.2-14.5l10.4-10.6 10.3 2.2c7.3 1.5 14.8 2.2 25.8 2.4 8.5.2 16.7.8 18.3 1.4 1.5.6 2.7.9 2.7.7 0-.3 1.5.1 3.3.8 1.7.8 3.7 1.2 4.4 1 .7-.3 2 0 3 .6 1.5.8 1.5 1 .3 1.4-.8.2-3.1.9-5.1 1.6-4.9 1.5-10.4 2.2-22.1 2.6-5.4.1-11.2.5-13 .9-1.8.3-4.8.8-6.7 1.1-4.8.8-17 5.2-20 7.2-1.4 1-4.2 2.6-6.1 3.6-1.9 1.1-4.6 2.9-6 4.2-1.4 1.2-3.2 2.6-4.1 3.1-6.2 3.4-17.2 14.1-25.1 24.5-2.5 3.4-7.8 13.5-7.8 15 0 2.1 3.1 1.2 6.7-2 2.2-2 5.1-4.5 6.4-5.6 3.4-2.9 8.6-4.9 15.4-6 1.1-.1 3.8-.8 6-1.3 2.2-.6 6.5-1.3 9.6-1.7 10.8-1.1 29.4-7.6 38.4-13.4 5.7-3.7 7-5 16.5-16.3 10.5-12.5 14.6-15 26.5-15.6 6.9-.3 9 0 15 2.3 6.1 2.3 15.6 5.2 32.3 9.8 2.3.6 4.2 1.5 4.2 1.9 0 .4-1.5 1.4-3.2 2.1-1.8.8-5.3 2.4-7.8 3.5s-10.3 4.2-17.5 6.7c-18.7 6.7-28.1 10.4-35.3 13.6-3.5 1.6-6.5 2.9-6.8 2.9-.3 0-3.6 1.5-25.4 11.7-4.1 2-13.8 6.7-21.5 10.6-33 16.6-30.6 15.7-47.4 16.3-14.8.5-17.1 1.3-14.7 5 1.6 2.3 2.4 5.4 2.8 11.2.1 1.8 1.1 4 2.1 4.9 1.7 1.6 2.2 1.5 8-1.4 3.4-1.7 10-4.9 14.7-7.1 4.7-2.2 17.1-8.1 27.5-13.1 21-10.2 20.5-10 29-13.1 3.3-1.2 7.5-2.9 9.2-3.7 1.8-.7 6.1-2.4 9.6-3.8 3.5-1.3 11.7-5.1 18.3-8.4 6.5-3.3 12.6-6.1 13.4-6.3.8-.2 1.8-.7 2.1-1.1.3-.5 1.2-.9 2-1 .8-.2 1.9-.5 2.4-.9 5-3.1 53.9-20.6 60.1-21.5 2.2-.3 8.6 2 24.3 8.6 11.7 5 21.5 9.1 21.6 9.1.1 0 1.9.7 3.9 1.5s3.8 1.6 4.1 1.6c.2 0 2.8 1 5.7 2.1 9.4 3.5 23.2 7.9 27.8 8.8 2.5.5 5.4 1.1 6.5 1.4 1.1.2 4.7.7 8 1 3.3.4 8.3 1.1 11 1.6 2.8.6 6.4 1.2 8.1 1.4 4.4.6 26.7 6.7 27.9 7.6.6.5 1.3.8 1.8.8.4.1 3.1.6 6 1.1 15 3.1 23.7 4.3 27.2 3.7 2.7-.5 3.5-1.3 4-3.6.3-1.6 2-4.6 3.6-6.6 3.5-4.4 4.6-7.9 3-9.8-1-1.2-1.7-1.2-4.4-.1-1.8.7-6.1 1.5-9.7 1.9-3.6.4-7.8.9-9.5 1.1-3.9.6-22.2.7-25.5.1-1.4-.3-5.6-1-9.5-1.6-8.6-1.3-18.9-3.7-27.3-6.1-3.5-1-6.6-1.8-7-1.8-.4.1-1.1 0-1.7-.1-.5-.1-1.4-.3-2-.4-5-.8-31.6-8.6-36-10.6-1.1-.5-7.6-2.7-14.5-5s-13.4-4.5-14.5-5c-3.1-1.4-14.7-5-16-5-.7 0-1.8-.6-2.4-1.4-1-1.2-.6-1.6 2.1-2.5 1.8-.5 5.3-.8 7.8-.5 2.5.2 6.1.4 8 .3 4.2-.1 8 0 13.6.2 3.3.2 5.2-.5 9.8-3.7 8.9-6.1 10.6-6.9 18.8-9.2 8.3-2.4 12.3-2.7 16.1-1.3 1.3.5 3.9 1 5.8 1.2 2.2.2 4.2 1.2 5.7 2.8 1.9 2.2 2.4 2.4 3.2 1.1.5-.8.8-2 .6-2.6-.3-.7 1.4-1.7 4.1-2.3 6.7-1.7 12.2-4.8 17.3-9.7 7.2-7 8-6.7 23.9 9 16 15.7 19.6 17.6 34.6 18.3 10.4.6 12-.1 30-11.9 5.5-3.6 11.7-7.4 13.8-8.4 6.7-3.2 4.7-4.2-9.2-4.5-11-.2-16.7-1.2-29.3-5.5-4.6-1.6-8.5-2.9-8.8-2.9-.3-.1-1.2-.5-2-.8-2-.9-10.7-2.7-15-3.3-1.9-.2-5-.6-6.9-1l-3.5-.6 5-2.7c2.7-1.4 7.6-4.9 10.9-7.6 5.6-4.5 6-4.7 6.3-2.6.3 1.8.9 2.1 3.5 1.8 2.6-.3 3.3-.8 3.5-3 .3-2.1-.2-2.9-1.9-3.5-2-.8-1.5-1.3 5.2-5.4 7.5-4.5 11.7-6.3 17.4-7.2 11.2-2 52.5-2.6 69.5-1.1 18.2 1.5 29.8.7 43-3 11.5-3.3 17.9-6.1 24.5-10.7 18.7-12.8 24.4-16.6 27.8-18.3 5.4-2.8 4.6-7.6-1.3-7-2.7.3-6.5.4-18 .3-11.7-.2-18.6.8-35 4.9-5.8 1.4-11.4 2.7-12.5 2.8-1.1.2-3.7.6-5.8.9-2.1.3-5.7.8-8 1.1-2.3.3-5.3.7-6.7 1-1.4.3-3.6.7-5 .9-1.4.3-4.1.8-6 1-1.9.3-4.6.8-6 1.1-11.2 2.2-13.6 2.8-14.5 3.4-.5.4-3 1.4-5.5 2.1-2.5.7-6.6 2.4-9.2 3.7-2.7 1.3-4.8 2-4.8 1.7 0-.4-.8 0-1.7.8-2 1.7-26.7 11.8-28.9 11.8-.8 0-1.4-.4-1.4-.9 0-1 9.1-8.3 16.2-13.1 3.3-2.3 10.8-8.5 16.2-13.5 1.2-1.1 4.7-4 7.7-6.5 2.9-2.5 5.6-4.7 5.9-5.1.3-.3 4.1-3.2 8.5-6.5 4.4-3.2 8.2-6.2 8.3-6.7.2-.4 1-.7 1.8-.7s1.4-.4 1.4-.8c0-.5 2.1-2.4 4.7-4.3 2.6-1.8 6.1-4.9 7.8-6.8 1.6-1.9 3.7-4.2 4.6-5 .9-.9 3.6-4.8 6.1-8.6 4.1-6.4 6.3-11.3 11.2-24.6 4.3-12 14.8-21.4 26-23.5 10.7-1.9 17.3-4.9 27.6-12.3 4.3-3.1 11.6-10.7 13.5-14.1.7-1.4 3.8-4.8 6.7-7.5 5.7-5.3 7.7-8.5 5.4-8.5-1.4 0-22.8 8-27.6 10.3-15.4 7.4-19.2 10.4-29.5 23.1-7.9 9.8-13.2 13.7-9.9 7.3 3-5.7 3.4-6.6 3.4-7.9 0-.6.6-1.9 1.3-2.7.8-.9 2.8-5.4 4.6-10.1 1.9-4.7 3.8-9.6 4.4-11 .5-1.4 1.1-3 1.3-3.5.9-3.7 3.8-8.7 5.7-9.9 1.2-.8 4.9-2.5 8.2-3.7 7.5-2.7 20.4-11.2 27.4-18.1 12.2-12.1 21.3-29.9 27.2-53.3 4.1-16.7 4.7-20.2 5.4-32.5.9-14.6 1.5-18.1 3.8-23 1.9-3.9 2.1-5.2 1.2-6-.9-.8-2.2.1-4.8 3.2-4.1 4.9-9.7 13-9.7 14 0 .4-3.2 5.5-7.1 11.3-3.8 5.9-7.8 12.5-8.8 14.8-8 18.5-14.3 31.2-20.2 40.7-5.6 9.3-12.6 22.8-15.5 30.2-2 5.1-3.9 6.7-2.4 2 .5-1.5 1.1-4.6 1.4-7 1.5-10.7 1.9-13.2 3.7-20.3 1.1-4.2 2.2-8.7 2.4-10 .3-1.3.7-3.5 1-4.9.2-1.4.7-4.1 1-6 1.1-7.2 1.9-9.7 5.5-18 5.8-13.2 7.2-21.3 7.2-39 0-11.9-1.7-33.5-2.8-37.4-1.3-4-.4-13.9 2-23.1 2.7-10.3 5.6-15.3 15.6-26.5 3.6-4 7.1-8.2 7.9-9.4.8-1.2 1.8-2.3 2.1-2.6.4-.3 3.1-4.1 6.1-8.5 8-11.9 25.2-46.6 27.4-55.5.2-.8 2.4-5.8 4.8-11.3 1.3-2.9 3.8-9 5.6-13.7 1.8-4.7 3.9-9.9 4.7-11.7.8-1.7 1.4-3.7 1.4-4.5 0-.8 1.6-3.7 3.5-6.4 3.5-4.9 4.3-7.8 2.5-8.9-.5-.3-1.7.3-2.7 1.3-1 1-6.6 6.9-12.5 13s-12.4 13.8-14.5 16.9c-2.1 3.2-4.1 6-4.4 6.3-1.1.9-7.9 15.7-7.9 17.1 0 4.7-3.2 10.3-13.4 23.4-15.6 20.1-20.7 31.3-25.6 55.6-2.4 12.1-4 17.9-5 17.9-.4 0-1.5-3.5-2.5-7.8-.9-4.2-2-8.4-2.3-9.2-.3-.8-.6-2.1-.8-2.9-.5-2.5-4.7-12.6-8.4-20.1-2.3-4.6-3.6-8.6-3.4-10.3.4-3.7 3.7-10.4 7-14.2 4.4-5.1 7.5-11.2 9-17.7.8-3.5 1.6-7 1.9-7.8.8-2.5 4.5-17.4 4.9-19.5 1-6.3 1.9-11.2 2.3-13 3.1-13.6 3.6-48.8.8-62-1-4.4-1.8-8.8-1.8-9.8-.1-.9-.5-1.7-.9-1.7s-.7-.3-.6-.8c.1-.4-.2-2.2-.6-3.9-.8-3.6-1.5-10.1-2-20.1-.3-6.6-1.5-9.2-3.3-7-.6.7-1.8 5.1-2.7 9.8-.9 4.7-2.7 13.2-4.1 19-1.3 5.8-2.6 12.1-2.9 14-.6 3.3-.9 5.2-2.2 13-1.4 8.2-1.7 9.5-5.7 24.5-3.1 11.5-4.2 16.6-5.3 24-.9 5.4-.2 19 1 24.2.9 3.2 1.8 7.8 2.1 10.3.4 2.5 1.1 6.5 1.6 9 1.6 8 1.7 18.3.3 21.9-.8 1.9-1.6 3.2-1.8 3-.5-.5-9.7-22.1-10-23.4-.1-.6-1-2.7-1.9-4.9-.9-2.1-1.7-4-1.7-4.2 0-.2-1.7-4.1-3.9-8.6-9.6-20.8-24.1-58.9-24.6-64.8-.2-2.5-1-7.6-1.8-11.4-1.4-6.4-1.5-13.8-.3-19.5 1.6-7.3 6.6-18.5 9.5-21.1 3.8-3.4 11.3-19.2 12.5-26.1.7-4.2.8-29.5.1-32.9-.2-1.3-.7-4.2-1-6.3-.4-2.2-1.1-5.1-1.6-6.5-2.1-5.6-5-16.9-5.6-21.7-.6-5.6-1.5-7-3.7-6.2-1 .4-1.6 1.9-1.6 4.1 0 5-3.1 17-8.3 32.6-4.7 14-5.3 16.7-6.3 27.8-.4 3.7-1.1 7.8-1.6 9.1-.4 1.3-.6 2.6-.3 2.9.2.3 0 1.1-.7 1.9-.6.7-2.1 5.3-3.4 10.1-1.7 6.8-2.2 10.8-1.9 18.2.4 11.1 4.7 29.7 10.1 43.4 1.9 4.8 3.3 9 3.1 9.2-.4.4-6-5.4-12.2-12.7-4.6-5.4-14.8-21.4-20-31.4-8.8-16.9-15.4-24.9-33-40.2-5.8-5-23.4-17.3-24.9-17.3-.2 0-4.4-2.4-9.3-5.3-4.9-2.8-16-8.3-24.7-12.2-12.1-5.3-16.8-7.9-20-11.1-6.8-6.8-15-15.8-16.6-18.3-1.5-2.2-1.7-2.3-3.3-.6-1.2 1.1-1.4 2.1-.8 2.9.5.6 2.3 4.5 3.9 8.7 1.7 4.2 4 9.3 5.2 11.5 6.4 11.4 13.6 23.3 16.2 26.5 1.5 2 2.8 4.2 2.8 4.8 0 .6.4 1.1.8 1.1.5 0 2.4 2.1 4.2 4.7 8 11.2 30.3 30.8 41.5 36.5 6.2 3.2 14.8 6.6 18.5 7.3.3.1 3 .8 6 1.7 3 .9 7.5 1.9 10 2.3 8.4 1.2 10.3 1.6 12.4 2.8 5.6 3.2 10.7 7.7 15.4 13.7 6.8 8.6 8.5 10.6 20.5 23.3 9.3 10.1 10.5 11.7 14.8 21.8 2.6 6 4.8 11.1 4.8 11.2 0 .1.4 1.5 1 3 .6 1.6 1.1 3 1.1 3.1 0 .2.8 2.1 1.7 4.2.9 2.2 1.7 4.3 1.9 4.9.2.9 6.2 16.8 8.6 22.5.6 1.4 1.7 3.7 2.5 5.2 2.1 4.2.2 3.4-4.8-2-8.5-8.9-11.3-14-16.3-29.4-4.3-12.9-13-31-18.6-38.4-6.7-8.9-14.6-14.6-32.3-23.3-8.9-4.4-19.1-10-22.7-12.5-3.6-2.5-6.8-4.2-7.3-3.7-.8.8 20.3 32.8 29.7 45 9.7 12.6 20.3 21.4 34.2 28.4 7.3 3.7 12 8.9 17 18.9 2.4 4.8 4.1 8.8 3.8 8.8-.3 0-4.3-2.4-8.7-5.4-11.2-7.4-21.2-11.7-29.7-13-1.9-.3-5.7-1-8.5-1.5-10.1-1.9-16.5-2.4-16.5-1.1 0 2.8 10 21.8 13 24.7 1.9 1.8 5 3.6 6.9 4 5.2 1 15.8.6 21.6-.9 2.7-.6 5.3-1.1 5.8-1 .4.1.7-.3.7-1 0-.6.3-.9.6-.5.4.3 2.1 0 3.8-.7 7.2-3 13.5-.1 27.3 12.9 11.7 11 14.1 15.6 14.4 27.9.1 4.8.8 11.8 1.6 15.4.7 3.6 1.2 7 1 7.5-.1.5-2.3-2-4.7-5.4-8.8-12.6-14.3-18.9-15.5-17.9-1.4 1.2-1.1 5.8 1 12.5 1.7 5.9 1.3 15.8-1.3 27.9-1.8 8.3-2 14.9-.8 23.6.3 1.9.7 5.7 1.1 8.3 1 9.2 4.4 22.2 10 38.7 6.3 18.4 9.4 30 10.2 37.5.8 8 .8 28.5-.1 35.5-.8 6.8-1.1 9.9-2.1 24-1.1 15.8-3 25.1-6.1 29.4-1.2 1.8-1.3 1.1-.9-5.9.3-4.4.7-13.3.9-19.7.2-6.4.6-12 .9-12.5.9-1.5 2.1-13.6 2.2-22.8.1-9.1-.3-11.5-3.7-24-1-3.9-2.1-7.7-2.3-8.7-.4-2-6.5-15.9-7.5-17.3-1.3-1.8-11.9-28.9-12.5-32-.3-1.7-.8-8.4-1-14.9-.3-6.5-.7-12.1-1-12.4-1.5-1.5-5.8 2.3-8 7.1-5.4 11.7-6.4 30.5-2.5 48.2.6 2.7 1.2 6.5 1.5 8.3.4 3.4 5.8 21 7.5 24.7 2.1 4.6 9.1 21.1 9.4 22 .1.5.9 2.3 1.8 4 .8 1.6 1.9 4.1 2.3 5.5.4 1.4 2.3 5.7 4.1 9.7 1.8 3.9 3.7 8.7 4.2 10.5.9 3.6.8 22.1-.2 27.8-.7 3.9-7.4 18-8.6 18-.4 0-2.2 3-4 6.6-2.5 5.2-3.3 8.2-3.7 14.7-.3 4.5-1 9.1-1.6 10.2-1 1.9-1.1 1.8-1.8-.7-1-4-.1-20.3 1.5-27.3 1.7-7.1.8-9-2.9-5.5-1.4 1.3-2.5 2.7-2.5 3.1 0 1.9-11.6 24.6-16.2 31.6-7.2 11-12.6 19.8-16.5 26.8-3.4 6.2-5.1 9.6-17.6 35.5-11.2 23-13.4 25.9-33.2 44.1-4.7 4.3-20.7 14.9-22.4 14.9-1 0-1.2-.3-.5-.8.6-.4 3.9-4.5 7.3-9.2 3.4-4.7 6.9-9.3 7.7-10.3.8-.9 1.4-1.9 1.4-2.1 0-1.5 11.2-16.5 16.6-22.1 7.8-8.2 10.3-12 13.2-19.8 4.3-11.4 5.8-21.3 6.6-43.8.3-8.5 1-13.1 2.6-17.5 4-10.9 4.4-12.4 3.4-13.4-1.4-1.4-9.2 5.3-14.4 12.3-3.7 5.1-13.5 22.7-12.5 22.7.2 0-.7 2.7-2 5.9-1.4 3.2-2.7 7.4-3 9.1-.3 1.8-1 4.1-1.5 5.1-.6.9-1.3 3.4-1.6 5.4-.3 2.1-.7 4.6-.9 5.6-.5 2.4-1.6 15.7-1.9 22.9-.3 6.3-2.9 14.9-6.1 20-1.2 1.9-3.3 6.1-4.8 9.2-1.4 3.2-4 7.9-5.8 10.5-4.5 6.7-15.9 20.4-18.7 22.7-1.3 1.1-3.2 2.7-4.1 3.6-.9.9-4.7 4-8.6 7-3.8 3-7.2 5.7-7.5 6.1-1.1 1.3-11.8 6.6-16.5 8.2-4.5 1.4-11.9 2.8-21.5 4.1-1.9.2-6.6 1.2-10.5 2.2-3.8.9-7.7 1.8-8.5 1.9-.8.1-2.8.8-4.5 1.4-1.6.7-4.4 1.3-6.1 1.4-1.8.1-3 .5-2.8.8.4.7-10.2 3.9-12.9 3.9-2 0-2.1-1.1-.6-5.9 3.5-11.1 6.1-15 8.6-12.9 1.2.9 1.6.9 2.3-.2.5-.8.5-1.9 0-2.5-1.5-1.8 3.6-4.9 11.5-7 3.9-1.1 7.9-2 9-2.1 1.1-.1 4.3-.5 7-.8 4.1-.5 13.2-2.5 21.4-4.7 6.4-1.7 12-5.9 17.8-13.4 8-10.2 7.4-9.3 10.8-14 1.7-2.2 3.3-4.4 3.7-5 11-14.7 11.7-16.8 5-13.9-10.7 4.5-23.8 8.6-32.7 10.1-1.6.3-4.6 1.2-6.5 2-1.9.8-4.2 1.6-5.1 1.8-1 .2-5.6 2-10.5 4.1-14.7 6.3-23.3 13.1-32.9 26-7.3 9.8-9.8 15.1-12.8 27.1-1.4 5.6-3.4 11.1-4.4 12.2-1 1.1-5.4 2.9-10.1 4.1-9.9 2.5-13.8 3-25.7 3.5-14.3.5-22.6 1.4-28.5 3.2-6.5 1.9-9 1.8-19-.3-11.1-2.4-15.8-4.4-18.3-7.5-2.7-3.3-9.8-7-19.2-9.8-7.8-2.3-8.5-2.7-10.6-5.7-1.2-1.9-8.7-10.9-11.4-13.8-.5-.6-2.3-2.9-3.9-5.1-7.3-10.1-22.4-22-36.1-28.5-20.3-9.6-30.8-15.4-37.9-21.1-14.7-11.8-17.9-14.8-25.6-24.2-4.6-5.5-10.3-10.1-11.4-9-1.8 1.8-.4 10.8 2.5 16.6 2.4 5 10.3 16.5 12.9 18.7.3.3 3 3.4 6 7 3 3.5 6 7 6.6 7.6.6.7 2.1 2.5 3.5 4 2.6 3 15.5 14 24.9 21.2 3 2.3 7 5.5 8.9 7.1 3.9 3.3 9.3 6.1 23.6 12.1 5.5 2.3 12.4 5.3 15.3 6.6 2.9 1.3 5.4 2.4 5.6 2.4.2 0 2.1.8 4.2 1.7 2.2.9 4.4 1.8 4.9 1.9.6.2 4.8 1.6 9.4 3.3 4.6 1.6 10.6 3.5 13.2 4.1 2.7.7 5.2 1.6 5.5 2.1.8 1.3.3 1.2-11.5-2.1-17.5-5-16.8-4.8-27.6-6.6-1.1-.2-5.4-.5-9.6-.7-7.1-.4-8.1-.7-14.5-4.9-12-7.9-21.3-10.2-33.9-8.1-9.2 1.5-18.6.9-23.5-1.3-2.5-1.2-5.8-2.4-7.3-2.8-5.4-1.3-19.8-14-35.2-31.1-12.2-13.6-25.8-22.5-43-28.3-5.2-1.8-7-2.3-7.2-2.3-.1 0-4.2-1.7-9.1-3.8-4.9-2.1-12-4.8-15.8-6l-6.9-2.1-4.8-9.8c-6.8-14-12-33.2-12-44.7 0-8.2.4-12.5 1.8-19.5.2-1.3.7-4.2 1-6.5 1.1-7.4 1.3-9 2.5-16.5.6-4.1 1.4-8.6 1.6-10 .5-3.1 1.2-7.6 2.2-15.5.9-7 .7-35.6-.2-40-1-4.4-1.4-6.6-2-10.7-1-6.1-3.3-15.3-4.4-17.4-.5-1-1-2.1-.9-2.4.1-1.4-3.7-8-5.8-10-4.2-4-5.5-.1-3.1 9.5 1.7 6.6 1.3 11.7-1.9 25-1.5 6.1-2.8 11.7-3 12.5-.1.8-.8 3.5-1.5 6s-1.2 4.7-1.2 5c0 .3-.4 1.5-.9 2.8-.5 1.3-1.1 3.5-1.4 5-.3 1.5-.7 3.8-1 5.2-.9 4.4-2.4 17-2.7 22.5 0 1 .9 11 1.7 17.5.2 1.9.7 6 1 9 .4 3 1.5 9.1 2.6 13.5s2.1 9.1 2.3 10.5c.3 1.4.9 3.8 1.5 5.3 1.5 3.8 1.4 4.7-.3 4.1-.8-.3-4.2-5.6-7.6-11.7-3.4-6.2-6.9-12.6-7.9-14.2-1-1.7-4.9-8.4-8.6-15-3.7-6.6-7.5-13.1-8.5-14.5-3.4-4.8-16.4-32.5-16.6-35.5-.1-1.7-.3-3-.4-3-.1 0-.4-3.5-.6-7.8-.5-12.7-3.5-21.6-13.9-41.5-1.9-3.7-2.2-11.5-1-22.2.4-3.6.8-7.6 1-9 .1-1.4.8-6.3 1.5-11 .6-4.7 1.4-9.9 1.6-11.5 1.5-11.6 7.6-30.6 12.9-40.1 3.4-6.1 12.5-18.2 17.6-23.4 10.9-11 26.7-33.2 42.3-59 5.4-9 6.2-9.8 12.9-13.5 8.5-4.8 23-18.6 28.1-26.7 2-3.1 3.6-6.2 3.6-6.7 0-1.2-3.5-3.3-4.2-2.5-.3.2-1.5.7-2.8.9-3.6.7-23.8 12.3-34.5 19.9-12.2 8.7-23.7 20.1-41.1 40.7-2.2 2.5-5.9 7-8.4 9.9-10.8 12.8-14.8 19.2-18.5 29.5-.9 2.7-2 5.7-2.3 6.5-1.4 4-2.3 12.2-2.7 24.5-.4 13.1-.7 15.2-4.5 28.9-1.1 4.3-1.9 8.1-1.6 8.4.3.2.1 1.2-.4 2.2-.5.9-1.2 4.3-1.5 7.6-.4 3.2-1 9-1.5 12.9-.5 3.8-.6 7.3-.3 7.8.3.4.2 2-.2 3.5-.6 2.3-.8 2.4-1.6 1-2.7-4.9-3-62-.4-75.9.3-1.3.7-3.5 1-4.9.3-1.4 1.2-6.1 2-10.5.7-4.4 1.7-9.6 2-11.5 1-5.5 1.2-6.7 2.9-19.5 1.6-11.8 2.3-16 2.6-16 .1 0 .4-1.6.7-3.5.8-6.3 4.2-18.8 6.1-22.9 2.1-4.4 15.9-22.4 21.9-28.6 6-6.3 12.1-10.8 21.3-15.7 30.2-16.1 41-22 53-28.8 7.4-4.2 16.7-9.4 20.5-11.5 8.9-4.8 23-14.3 31.9-21.3 10.4-8.3 25.5-23.8 31.3-32.2 4.6-6.6 5.1-7.7 3.8-8.9-1.3-1.3-1.8-1.2-4.4.7-7.6 5.6-15 8.6-33.1 13.3-15.3 4-14 3.6-23.6 7.9-5.4 2.5-19 11-20.4 12.8-.3.4-1.4 1.2-2.5 1.9-23.7 14.1-29.5 18.2-43.7 30.2-12.3 10.5-17.2 17-24.3 32.1-2.7 5.8-5.4 11-6 11.6-.5.6-3.9 4.3-7.5 8.4-3.6 4-8.2 9.1-10.3 11.4l-3.8 4.1.7-3.5c1.3-7 6.3-15.3 14.5-24.3 2.5-2.7 11.1-18.4 11.5-21 .7-4.3 7.4-20.8 11.7-29.1 5.5-10.3 13.6-19.8 24.7-28.7 3-2.4 5.7-4.6 6-4.9.8-.9 9.8-6.3 16.5-10 11.7-6.5 34.1-19.7 42.7-25.3 7.6-4.9 21.2-14.9 22.8-16.6.3-.3 3.2-2.8 6.5-5.6 3.3-2.7 6.7-5.9 7.6-7 2.9-3.5 5.8-6.8 14.2-15.9 4.5-4.8 9.3-10 10.6-11.5 10.4-11.5 32.8-34.7 42.9-44.7 8.9-8.7 12.3-12.6 12-14-.2-1-1.2-2-2.3-2.1-1.1-.1-9.9 2.7-19.5 6.3zm-6 10.4c0 .5-.5 1-1.1 1-.5 0-.7-.5-.4-1 .3-.6.8-1 1.1-1 .2 0 .4.4.4 1zm-22 13.5c-2.4 3.8-4.9 4.9-2.8 1.2.7-1.2 1.3-2.4 1.3-2.7 0-.3.7-1.6 1.5-3 1.2-2.1 1.5-2.2 1.8-.7.2.9-.6 3.3-1.8 5.2zm-2.4-4.3c-.4 2.5-5.5 12.6-6.7 13.3-.6.4-1.5.1-2-.6-.6-1-.9-.9-1.4.6-1.6 4.7-3.1 6.3-10.6 11.4-4.4 2.9-8.2 5.1-8.4 4.9-.5-.4 2-7.2 5.8-15.8.8-2 2.4-4.2 3.4-5.1 1.8-1.6 11.1-6.9 12.1-6.9.5 0-.3 4.6-1.3 7.2-.4 1.1-.3 1.8.4 1.8.6 0 1.1-.6 1.1-1.2 0-2.6 3.6-9.8 5-10.2 2.6-.7 2.8-.6 2.6.6zm21.4.8c0 .9-3.2 3.6-5.1 4.3-.9.3-2.2.1-2.9-.3-1-.6-.5-1.3 1.8-2.7 3.2-2 6.2-2.6 6.2-1.3zm-7 7c0 .5-1.5.9-3.2.9l-3.3-.1 3-.8c1.7-.4 3.1-.8 3.3-.9.1 0 .2.3.2.9zm-4 6c0 2.5-10.1 13.8-11.9 13.3-.3-.1-1 .2-1.6.6-1.3 1.1-14.5 1.1-14.5 0 0-1 8.8-6.2 11-6.6.8-.1 3-.3 4.8-.5 1.7-.1 3.2-.5 3.2-1 0-.4-1.6-.6-3.6-.4-1.9.1-3.7-.1-3.9-.5-.5-.8 1.7-2.8 4.9-4.4 2.9-1.5 11.6-1.9 11.6-.5zm-42.6 6c-1.3 2.7-2.4 5.2-2.4 5.4 0 .3-.4 1.5-.9 2.8-.5 1.3-.9 2.6-1 3.1-.4 3.7-7.3 10.8-8.9 9.3-.3-.4.5-2.4 1.7-4.6 3.5-6.2 2-6.9-2-.9-3.7 5.7-5.3 8.9-5.1 10.1.1.5-.3.8-.8.8-1.3 0-1.4.1 1.5-6.5 1.6-3.4 2.1-5.5 1.3-5.3-.7.3-1.9 2.4-2.8 4.9-3.1 8.2-3.9 9.7-6.1 11.3-1.3.8-2.4 1.4-2.6 1.3-.1-.2.4-2.8 1.2-5.8.9-3 1.7-6.3 1.9-7.5.6-4 5-10.4 9-13.1 2.3-1.6 4.3-3 4.6-3.4 1-1.1 11.5-6.9 12.7-6.9.7 0 .2 1.9-1.3 5zm5.6-2.5c0 .3-.7 1.6-1.5 2.9-.9 1.3-1.8 3.4-2 4.7-.3 1.2-.9 2.7-1.5 3.3-1 1-.2-2.4 2.1-8.2 1.1-2.7 2.9-4.4 2.9-2.7zm506.9 5.8c0 2.1-.1 2.1-.9.2-1.2-2.8-1.2-3.7 0-3 .6.3 1 1.6.9 2.8zm-.4 6.3c.9 1.5 1.2 2.3.6 2-1.1-.7-3.5-4.6-2.8-4.6.3 0 1.2 1.2 2.2 2.6zm-485.2 1.3c1.8.2-2.4 5.4-13.9 17.3-3.5 3.7-5.4 4.8-7.7 4.9-1.8 0-4.1.2-5.2.4-1.1.2-4 .6-6.5.9-4.4.5-8.5 1.3-8.5 1.6 0 .6-3.6.7-4 .1-1.6-2.6 12.5-11.2 19.1-11.6 5.9-.3 7-1.5 1.4-1.5-4.8 0-4.5-1.5.5-2.5 1.7-.3 3.7-.8 4.5-1 .8-.2 2.5-.4 3.8-.4 1.2-.1 2.2-.5 2.2-1 0-1-5.4-.7-8.2.4-3.4 1.3-1.8-1.2 2.8-4.4 2.7-2 5.3-3.1 6.4-2.8 1 .3 3.4.2 5.2-.2 1.8-.4 4.2-.6 5.3-.5 1.1.1 2.4.3 2.8.3zm-52.8 4.2c-.4.6-.9 2.6-1 4.3-.2 3.9-4.5 13-7.9 17.1-2.9 3.3-3.1 2.9-1.5-2.9 2.2-7.8 9.4-21.4 10.7-20.2.2.3.1 1-.3 1.7zm-95.7 8.9c0 7.3-1.1 10.7-2.3 7.2-.3-1.2-.2-2.9.3-3.9.6-.9.8-4.2.5-7.3-.3-3.8-.2-5.1.5-4.1.6.8 1 4.4 1 8.1zm634.3-7.3c1.3 1.6 1.2 1.7-.3.4-1-.7-1.8-1.5-1.8-1.7 0-.8.8-.3 2.1 1.3zm-.2 5.9c1.1 2.2 2.3 5.7 2.7 7.9.3 2.2.7 4.2.9 4.5.2.3 0 1.2-.6 2-.7 1.2-1.4.9-3.8-1.6-3.8-4-7.1-10.7-6.6-13.2.2-1.1.9-3 1.5-4.2.9-1.8 1.3-1.8 2.5-.6.8.7 2.3 3.1 3.4 5.2zm-148.1-.3c2.1 2.2 2.7 3.4 1.8 3.4-.8 0-1.3-.4-1-.9.3-.4-.1-.8-.9-.8s-2.2-1-3.1-2.3c-.9-1.2-1.4-1.5-1.1-.7.4.8-.1.6-.9-.4-4.1-5.1-.1-3.8 5.2 1.7zm-398.5-.1c-.6.7-1.6 3.1-2.2 5.3-1.4 4.6-4.3 11.8-5.1 12.5-.3.3-1.1 1.7-1.9 3.2-.8 1.6-1.8 2.8-2.3 2.8-.5 0-.7-.4-.4-.8.3-.5.8-2.3 1.1-4.1.9-5.4 5.4-15.5 8.1-18.4 2.5-2.7 4.7-3.1 2.7-.5zm-81.2 1.9c-.5 1.3-1 1.9-1 1.2-.1-1.5 1-4.5 1.5-4 .3.2 0 1.5-.5 2.8zm614.1.1c-.7.7-1 .5-.7-.8.5-2.9.6-3 1.2-1.6.3.8.1 1.8-.5 2.4zm-541.3 4c-.6 1.8-1.1 3.7-1.3 4.3-.9 4.4-6.2 16.6-7.9 18.6-2.6 2.9-15.2 12.9-16.2 12.9-.7 0-.3-4.5.9-9.8.3-1.3 1.6-4.8 3-7.8 3.4-7.4 17.2-20.9 21.8-21.3.4-.1.2 1.4-.3 3.1zm415.4.8c.6 2.4-.8 3.6-1.7 1.4-.8-2.2-.7-3.4.3-3.4.5 0 1.1.9 1.4 2zm-498.6 2.7c.2 1 .5 4.3.8 7.3.2 3 .5 5.7.6 6 .1.5-.2 6.5-.5 10.5-.1 1.1-.7 1.9-1.4 1.7-.7-.1-1.2.2-1.2.8 0 .5.6 1 1.3 1 1.1 0 1.2 1.1.6 5.2-.4 2.9-1 7.7-1.3 10.7-.6 6.5-1.2 7.2-2.8 3.5-.6-1.6-1.7-3.6-2.3-4.4-1.9-2.5-5.2-12.4-5-15 .1-1.4 1-5 1.9-8.1.9-3.1 1.9-6.7 2.1-8 .3-1.3 1.5-5.2 2.7-8.7 2.1-6 3.7-6.9 4.5-2.5zm503.6 1.3c.8 2.2 1.2 4 .8 4-.5 0-1.5-1.8-2.4-4-.8-2.2-1.2-4-.8-4 .5 0 1.5 1.8 2.4 4zm3.7-.7c0 .7.6 2.3 1.3 3.7.8 1.4 1.6 3.7 2 5l.6 2.5-1.9-2.5c-1.1-1.4-2-3.1-2.1-3.8-.2-1.5-.6-3.1-.9-3.5-.7-.9-.7-3.6.1-3.1.5.3.9 1.1.9 1.7zm125.1.4c2.8 3.1 4.8 6.3 6.7 10.6 1.6 3.8.1 2.8-6.7-4.5-3.4-3.7-5.1-6.3-4.7-7.3.8-2.2 1.9-1.9 4.7 1.2zm-114.4 4.5c.6.7 1.6 3.3 2.3 5.8.6 2.5 1.3 5.3 1.6 6.2.4 1.2 0 1.8-1 1.8-.9 0-1.6-.5-1.6-1 0-.6-.6-1-1.4-1-2 0-6.6-9.7-6.6-13.8v-3.3l2.8 2c1.6 1.1 3.4 2.6 3.9 3.3zm-504.8-1c.8 2.1.7 8.5-.1 11.8-.4 1.3-3 6.3-6.5 12.4-.7 1.1-1.3 2.9-1.3 3.9s-.5 1.5-1 1.2c-.6-.3-.8-1.6-.5-2.8.9-4.3 1.6-9.3 2-14.6.5-5.5 3.9-14.1 5.6-14.1.5 0 1.3 1 1.8 2.2zm117.1-.3c.3.1-.4.7-1.5 1.3-2 1.2-19.5 2.5-18.4 1.4 1.5-1.6 16.6-3.6 19.9-2.7zm365.1 2.7c1.7.8 2.9 1.8 2.6 2-.3.3-2.2-.4-4.4-1.5-2.1-1.1-3.2-2-2.5-2.1.7 0 2.7.7 4.3 1.6zm33.1 2.8c1 .7 2.7 3.4 3.8 6 2.2 5.3 6 11 6.7 10.3.2-.3-.5-2.4-1.7-4.6-3.1-6.2-4.1-9.1-3-9.1 1.3 0 2.9 3.2 6.1 12.2 2.5 7 2.6 9.2.5 7-.4-.4-1.1-.7-1.4-.7-1-.1-10.4-5.7-11.8-7-1-.9-6.4-15.3-6.4-16.9 0-.7 5.2 1.2 7.2 2.8zm104.1.8c2.5 2.4 5 5.2 5.6 6.4 1.7 3.5-2.2 16.8-6.9 23.5-1.7 2.3-2.4 2.7-3.4 1.6-.7-.7-1.5-2.3-1.9-3.7-.3-1.4-1.9-4.6-3.6-7-1.6-2.5-3-5.4-3.2-6.5-.2-2 .1-3 2.7-9.5.7-1.9 1.8-4.7 2.4-6.3 1.3-3.7 2.9-3.4 8.3 1.5zM368 220.9c1.3.4-2.8 2.1-5 2.1-2 0-2.2.2-1 1 1.3.9.9 1.6-2 4.1-1.9 1.6-7.2 5.5-11.8 8.5l-8.3 5.5H318.6l-4-.1 2.8-2.9c3.5-3.7 15.7-12.1 18.2-12.6 1.1-.2 1.9-.4 1.9-.5 0-.3 6.3-1 13.9-1.5 10.5-.7 11.3-1.8.9-1.3-4.5.1-7.9.1-7.7-.2 1.5-1.4 19.9-3.1 23.4-2.1zm378.9 3.6c.2-.3 1 0 1.8.6.7.6 1.3.8 1.3.5 0-.4.6-.1 1.3.6.8.7 3.7 3.1 6.5 5.3 2.9 2.1 4.8 4.3 4.3 4.8-.4.4-3.6.9-7 1l-6.3.2-5.9-6.3c-7.5-7.9-7.7-9.7-1.2-7.7 2.6.8 4.9 1.2 5.2 1zm38.8 3.7c.5.7 1.5 2.9 2.2 4.8.7 1.9 1.7 4.4 2.1 5.5 3.7 9.3 3.8 11.3.2 7.7-1.8-1.8-5.1-9.4-7.2-16.5-.9-2.9.9-3.9 2.7-1.5zm-485.1 3.6c-.3.5-.7 1.9-1 3.3-.3 1.3-.7 3.3-1 4.4-.3 1.1-.9 3.5-1.3 5.3-.5 1.8-1.3 3.2-1.8 3-.6-.2-.8-.8-.6-1.3.2-.6.5-2.3.8-3.8.5-3.4 4-11.7 4.8-11.7.4 0 .4.4.1.8zm493.6 5.4c2.4 6.6 3.3 10.7 2 9.3-1.3-1.3-5.2-12.1-5.2-14.2 0-2.6 1.2-.8 3.2 4.9zm-538.7 1c-.6 4.5-3.4 10-4.7 9.2-.7-.4-.8-.2-.4.4.7 1.2-1.3 5.2-2.7 5.2-.4 0-.5-.4-.2-1 .3-.5.8-1.8 1-2.7.7-3.8 2.5-7.4 3.4-6.8.5.3 1.3 0 1.7-.6.4-.8.3-.9-.4-.5-1.7 1-1.5-.9.3-2.4.8-.6 1.4-1.5 1.3-1.8-.1-1.2.2-2.2.6-2.2.3 0 .3 1.4.1 3.2zm545.3.9c1.1 1.1 2.2 3.9 2.6 6.2.3 2.3.9 5.2 1.2 6.4.9 3.4-1.3 2.8-3.1-.7-.9-1.7-1.3-3-.9-3s.2-.6-.3-1.3c-.6-.6-1.3-2.4-1.7-3.9-.3-1.4-.9-3.3-1.2-4.2-.9-2.3 1.2-2 3.4.5zm-507.2 4.2c-.7 2.8-1.8 6.1-2.4 7.2-1.1 1.8-1.2 1.7-.8-1 .6-4.5 2.8-11.5 3.7-11.5.4 0 .2 2.4-.5 5.3zm480.9-1.9c12.4 7.1 15.2 9.8 10.3 10.2-1.3.1-4.8.5-7.8.9-7.1 1-8.6.9-10.8-.7-4.2-2.9-13.3-11.8-12.9-12.5.3-.5 4-.8 8.4-.7 6.7 0 8.5.4 12.8 2.8zm-440.8 4.2c-2.1 1.8-3.8 2.1-12.2 2.2-5.3.1-10.1.4-10.6.7-.5.4-1.6.2-2.6-.3-2.8-1.6 1.5-3.1 11.3-3.8 4.9-.3 9-.8 9.2-.9.2-.1 1.9-.2 3.8-.2l3.6.1-2.5 2.2zm475.4.2c2.1 2 3.2 4.1 3.5 6.8.3 2.1.7 4.5.9 5.1.3.7 0 1.3-.5 1.3-2.1 0-5-4.1-6.4-9.1-2.4-8.1-2.2-8.5 2.5-4.1zm59.2 6.8c.9 2.4 1.3 4.4.9 4.4-.8 0-6.2-11.1-6.2-12.6.1-1.8 3.6 3.8 5.3 8.2zm-611.7.1c-.2 4.3-1.1 9.4-1.9 11.3-.8 1.9-1.6 3.9-1.7 4.5-.2 1.1-4.8 9.3-6.3 11.3-.8 1-1.2 1-1.8.1-1.4-2.3.5-13.5 3.4-19.9 1.9-4.3 7.9-15 8.3-15 .2 0 .2 3.5 0 7.7zm605.7-3.4c2.5 3.3 6.2 13.7 4.9 13.7-1.4-.1-8.2-12-8.2-14.5 0-3.2.3-3.2 3.3.8zm-574.9 2.6c-.5 3.1-1.9 5.3-5.6 9.1-2.8 2.8-5.2 4.9-5.5 4.6-.5-.5 7.1-13.9 9.5-16.9 2.1-2.3 2.4-1.7 1.6 3.2zm-53 2.3c4.9 8.9 7.6 16.2 6.6 17.8-.5.8-1 1.2-1.2 1-.2-.3-1.1-1.4-2.1-2.6-3-3.7-9.1-22.4-7.2-22.4.2 0 2 2.8 3.9 6.2zm93.2-3.9c2.2 2.2-12.5 3.7-26.6 2.8-1.9-.1 1.6-2.7 4.4-3.2 3.1-.6 21.6-.3 22.2.4zm466.1 4.8c2.3 2 1.5 2.4-3.9 2.2-2.9-.1-7-.2-9-.2-2.1-.1-3.8-.5-3.8-.9 0-2.5 13.9-3.4 16.7-1.1zm-475 .2c.7.8-.4.9-9.2.9-10.2 0-12.1-.2-10.7-1 1.4-1 18.9-.8 19.9.1zm452.8.7c.3.6-.1.7-.9.4-1.8-.7-2.1-1.4-.7-1.4.6 0 1.3.4 1.6 1zm48.1 4.4c.3 3.2-1.2 3.4-2.1.3-1.9-6.4-1.9-6.4.1-4.5.9.9 1.8 2.8 2 4.2zm42.3-1.3c2.4 4.2 3.6 10.5 2.2 11.4-.7.4-6.1-12.7-6.1-14.8 0-1.9 1.8-.3 3.9 3.4zm-554.1-.2c4.3.1 5.6 1.4 2.5 2.5-1 .4-3.1 1.4-4.7 2.2-1.5.9-5.1 1.7-8 1.9-2.8.2-5.5.4-6.1.5-4 .9-4.6-1.6-1.2-4.7 3-2.8 4.6-3.3 9.2-2.8 2.2.2 5.9.4 8.3.4zm494.3.1c2.3 1.3 2.5 3 .4 3-.9 0-4 .9-6.9 1.9l-5.4 1.9-2.7-2.8-2.7-2.8 4.8-.7c2.7-.3 5.6-.8 6.4-.9 3-.7 4.2-.6 6.1.4zm-569.6 5.2c2.9 6.2 4.6 9 6 10 1.2.8 1.6 15 .5 16.8-1 1.6-4 .6-4-1.3 0-.8-1.6-4.5-3.6-8.2-3.6-6.8-4.5-12.5-3-19 .2-1.1.5-2.3.5-2.8.2-1.7 1.2-.4 3.6 4.5zm547-3.2c.3.6-.1.7-.9.4-1.8-.7-2.1-1.4-.7-1.4.6 0 1.3.4 1.6 1zm31.9 3.5c-.2 1.7-7.4 4.7-8.7 3.7-.7-.5-2-.8-2.9-.7-4 .7-1-2.1 4.2-3.9 2.4-.8 7.5-.2 7.4.9zm50.1 8.4c.9 3.6.9 5.2-.1 7.6l-1.2 3-1-2.5c-1-2.7-.5-5.3.9-4.4 1.2.7 1.2.4-.6-4.6-.8-2.3-1.5-5-1.5-5.9.1-2.5 2 1.3 3.5 6.8zm-564.1-4.7c-.3.4-2.4.7-4.7.7l-4.2-.2 3.5-.6c4.8-.9 6-.9 5.4.1zm520.3 1.2c3.8 3.3 2.7 3.9-3.2 1.7-4.3-1.6-4.6-1.9-2.9-2.9 2.6-1.6 2.9-1.5 6.1 1.2zM287 272c-.8.5-1.9 1-2.5 1-.5 0-.3-.5.5-1s2-1 2.5-1c.6 0 .3.5-.5 1zm644 3c-.6 1.2-1.4 1.9-1.7 1.7-.2-.3.1-1.5.7-2.7.6-1.2 1.4-1.9 1.7-1.7.2.3-.1 1.5-.7 2.7zm-679.4 2.7c-2.7 5.2-4.7 6.9-2.4 2.1 1.3-2.6 2.6-4.8 3.1-4.8.4 0 .1 1.2-.7 2.7zm26.9 1.3c-1 1.5-6.5 5.2-6.5 4.3 0-1.5 4-5.3 5.6-5.3.8 0 1.3.4.9 1zm653.5 2.8c0 .5-.7 1.7-1.5 2.8-1.4 1.8-1.4 1.7-.4-.9 1.2-2.7 1.9-3.4 1.9-1.9zm2 5.6c-1.7 5.1-4.9 11.8-5 10.5 0-1 3.7-11.5 4.9-13.8 2-3.7 2.1-2.3.1 3.3zm-701.7.3c3.3 6.6 1.9 10.3-1.7 4.7-1.9-2.7-2.9-9.4-1.5-9.4.5 0 1.9 2.1 3.2 4.7zm17 6.2c-.8 2.5-1.6 5.3-1.8 6.1-.4 2.1-4.6 12.4-5.2 13-.6.6.4-8.8 1.3-12.8 1-4.4 5.7-13.3 6.5-12.1.3.6 0 3.2-.8 5.8zm112.8-1.6c-1.3 1.2-2 1.5-1.6.7 1.4-2.6 2.8-4.1 3.3-3.5.3.3-.5 1.6-1.7 2.8zm-7.5 2.4c-.4 1.5-1.6 3.9-2.7 5.3-1.5 2-1.8 2.1-1.3.5.4-1.1 1-2.5 1.4-3 .4-.6 1-2.3 1.4-3.9.4-1.5.9-2.6 1.2-2.3.3.3.3 1.8 0 3.4zm-16 6.8c-4.6 8.7-8.5 14.2-11.5 15.9-1.3.8-1.3.6.2-1.7 1-1.5 1.3-2.7.7-2.7-.5 0-1.8 1.7-2.9 3.7-2.6 5.1-5.6 7.7-7.8 6.8-1.2-.5-1.4-.9-.5-1.2.6-.3 1.2-1.3 1.2-2.2 0-1 .8-2.9 1.9-4.2 1-1.3 2-2.9 2.2-3.4.2-.6 2.4-4.4 4.9-8.5 7.5-12.7 10.4-13 4.5-.4-4.1 8.6-4.1 11.4.1 3.2 1.4-2.9 3-5.5 3.5-5.6.5-.2.9-1 .9-1.7 0-1.5 6-7.9 6.7-7.1.2.2-1.6 4.3-4.1 9.1zm7.6-4.6c-.9 1.4-2 3-2.5 3.6-.4.5-1.6 2.5-2.5 4.4-.9 1.9-2.3 3.7-3 3.9-1.4.4 4.4-10.9 6.2-12 .6-.4 1.2-1.2 1.2-1.8.1-.5.2-1.6.3-2.3.1-.9.4-.8 1 .2.6.9.4 2.3-.7 4zm591.3 5.6c.2 5.8-.1 8.7-1.3 11.4-.9 2-1.9 3.8-2.2 4.1-.3.3-1.5 2.1-2.7 4l-2.2 3.4-.6-2.5c-.3-1.4-.5-6.6-.2-11.5.3-8.2.6-9.3 3.7-13.7 1.9-2.6 3.8-4.3 4.2-3.9.5.5 1 4.4 1.3 8.7zm-611.3-1.7c-.9 2-2.4 4.9-3.4 6.4-1 1.4-1.8 3.3-1.8 4.1 0 .9-.5 1.9-1.1 2.3-.6.3-2.2 3-3.4 5.9-2.6 5.8-5.5 8.5-12.4 11.6-2.5 1.1-5.3 2.7-6.3 3.6-1 .9-1.8 1.2-1.8.7s-.5-.2-1 .6c-2.3 3.6-.8-3.5 2-9.7 1.7-3.5 3-6.6 3-6.8 0-1 8.6-13.3 10.4-14.8 2.7-2.3 15.9-8.6 16.8-8.1.4.3 0 2.1-1 4.2zm21.9-.6c-.9 2.3-2.3 4.4-3 4.6-1 .3.4-2.7 3.6-8.1 1.3-2.2 1-.2-.6 3.5zm-114.6 2.2c0 2.8-1.9 1.9-3.3-1.5l-1.3-3.2 2.3 1.5c1.3.9 2.3 2.3 2.3 3.2zm-73-.5c.3.5.1 1.2-.5 1.6-.5.3-1-.1-1-.9 0-1.8.6-2.1 1.5-.7zm764 .1c.3.5.1 1-.4 1-.6 0-1.1-.5-1.1-1 0-.6.2-1 .4-1 .3 0 .8.4 1.1 1zm.5 3c0 .5-.2 1-.4 1-.3 0-.8-.5-1.1-1-.3-.6-.1-1 .4-1 .6 0 1.1.4 1.1 1zm-107.6 2.5c.4 1.3.2 1.4-1.4.5-2.3-1.3-2.6-2-.6-2 .8 0 1.6.7 2 1.5zm-580.1 3.1c-.4 1-.9 1.2-1.5.6-1.2-1.2-.1-3.5 1.2-2.7.5.3.6 1.3.3 2.1zm60.9 8.6c-2.7 5.7-5.5 12.3-6.2 14.7-1.1 4.4-5.1 9.1-7.7 9.1-1.1 0-1-.7.3-3.8.9-2 1.8-4.4 2.1-5.2 4.6-12.4 14.2-27.5 16.2-25.5.2.3-1.9 5.1-4.7 10.7zm536.3-5.5c1 3.6-.9 2.7-2.8-1.2-.9-2-1.7-3.9-1.7-4.3 0-1.3 3.8 3.4 4.5 5.5zm6-.5c1 4.4 1.3 9.8.6 9.8-.8 0-4.1-8.7-4.1-10.8 0-2.1 2.9-1.3 3.5 1zm84 5.3c.5 3.4.4 4.7-.3 4-.5-.6-1.2-3.5-1.5-6.5-.7-6.7.8-4.7 1.8 2.5zM155 314.1c0 .6-.4.7-1 .4-.5-.3-1-1.1-1-1.6 0-.6.5-.7 1-.4.6.3 1 1.1 1 1.6zm765.6 2.5c.3 1.6 1 4.7 1.6 6.9.7 2.2 1.3 4.7 1.4 5.5.1.8.4 3.6.8 6.2.7 5.1.8 14.5.2 19.3-.2 1.6-.4 3.6-.5 4.2-.2 2.8-2.2 1-4.5-4-2.3-4.7-4.7-10.4-5.1-11.7-1.3-4.9-1.5-7.9-.6-11.8.6-2.6 1.3-6.1 1.6-7.7.9-5.7 2.9-11.5 3.8-10.6.4.4 1 2.1 1.3 3.7zm-684.8 0c-.4.3-1.2-.5-1.8-1.8-1.2-2.2-1.2-2.2.6-.6 1 1 1.5 2 1.2 2.4zM110.6 323c.4 3 .9 6.3 1 7.2.1 1 .3 1.9.4 2 .1.2.3 2.3.5 4.8.3 5.6 1.3 13.3 2.5 18.2.8 3.8-.2 5.3-1.4 2.2-.4-.9-.9-1.4-1.3-1-.3.3.2 1.5 1.3 2.7 1 1.2 1.9 3.3 2 4.8 0 1.5.3 3.2.7 3.8.4.6.3 1.4-.2 1.8-1.1.6-.3 3.6 1.3 4.7.8.5.7.8-.1.8-.9 0-1 .7-.2 2.7.6 1.6 1 2.8.9 2.8-.1 0 .1 3.1.5 7 .8 8 6.5 26 10.2 32.3 2.6 4.5 2.5 6.6-.1 3.9-.9-.8-1.9-1.7-2.4-1.9-1.5-.6-9.9-13.3-13.7-20.7-4.2-8.4-9.1-23.6-9.5-29.6-.2-2.2-.3-9.6-.3-16.5-.1-15.6.7-23.3 3.5-33.5.6-2.2 1.2-4.7 1.3-5.5.2-.8.4-1.7.5-2 .3-1.2 1.8 4 2.6 9zm50.9-6c-.4 1.2-.9 1.9-1.2 1.7-.3-.3-.2-1.5.2-2.7.4-1.2.9-1.9 1.2-1.7.3.3.2 1.5-.2 2.7zm663.1-.8c3.7.7 7 2.1 8.8 3.7 7.1 6.4 8.7 8.2 8.1 9.2-.8 1.2-8.9.3-12.5-1.4-3.1-1.5-8-6.2-8-7.6 0-.6-.3-1.1-.8-1.1-.4 0-1.3-.9-2-2-1.4-2.3-1.3-2.4 6.4-.8zm24.1 2.6c5.3 4.7 7.7 10.7 5.7 14.3-.7 1.3-1.4 1.8-1.5 1.1-.1-.6-.2-1.6-.3-2.1 0-.5-.4-1.3-.8-1.7-.4-.4-.3-1.3.3-2.1.9-1 .8-1.3-.5-1.3-1 0-1.5.4-1.2.8.2.4 0 1.4-.5 2.2-1.8 2.7-4.7-2.9-6.3-12.3-.6-3.5.1-3.4 5.1 1.1zm-559.5 4.9c-3 6.6-5.3 12.3-5.4 13.3 0 .3-.5 1.4-1.1 2.5-.6 1.1-1.2 2.6-1.3 3.4-.3 1.7-3.2 4.7-3.8 4-1.3-1.3 7.7-22.4 12-28.1 3.1-4.2 2.9-2.3-.4 4.9zm-5-.5c-1.6 2.9-4.4 9.3-6.1 14.3-3 8.5-7 14.5-9.6 14.5-1.6 0-7.3 2.9-8 4.1-1 1.5-4.5 1-4.5-.6 0-.8 1.8-6.2 4.1-12 2.8-7.4 5.1-11.6 7.4-13.8 3.3-3.1 18.7-12.9 19.3-12.2.2.2-1 2.7-2.6 5.7zm649.7 5.4c-1.8 3-3.7 5.4-4.1 5.4-1.8 0-.8-6.6 1.2-8 1.1-.8 2-1.8 2-2.2 0-.4.8-1.7 1.8-2.8l1.7-2.1.3 2.1c.2 1.2-1.1 4.6-2.9 7.6zm-778-3.1c0 .5-.4.3-.9-.5s-.9-2.2-.9-3c0-1.6 1.7 1.6 1.8 3.5zm12.1 1.3c0 1.1-.9 4.4-1.9 7.5-1.1 3-1.7 5.7-1.5 6 .3.3.1.8-.5 1.2-.6.3-1.2 0-1.2-.7-.6-6 1.7-15.8 3.7-15.8.8 0 1.4.8 1.4 1.8zm-12.1 6c.8 1.8 1.2 3.5.9 3.7-.9 1-3.6-3-4.3-6.4-.6-3-.6-3.3.7-2 .7.8 2 2.9 2.7 4.7zm19 2.9c4.6 9.3 8.3 20.5 7.7 23.5-.4 2-.2 2.6.8 2.2 1.6-.6 3.3 3.6 4.2 10.7.4 3.1.3 4.9-.4 4.9-.5 0-1.3.7-1.6 1.6-.4 1.2-.1 1.4 1.4.9 1.5-.5 2-.2 2.1 1.2 0 1 .2 2.7.5 3.8 1 4.5.5 9.5-1 11.6-1.7 2.5-2.1 4.1-.8 3.7 1.3-.5 1.4 1.3.2 4.2-.7 1.7-1.6 3-2.1 3s-.9.6-.9 1.2c0 .7-1.4 2.9-3.1 4.8-1.7 1.9-2.7 2.8-2.2 2 .4-.8.8-1.7.9-2 .2-1.3 4-8.7 5.3-10.3.8-.9 1.1-1.7.8-1.7-1.3 0-5.3 4.7-7.1 8.2-1 2.1-2.2 3.5-2.7 3.3-2.1-1.4.6-16.6 4.2-23.7 1.1-2.1 1.5-3.8.9-3.8s-2.5 2.9-4.2 6.5c-3.1 6.2-4.8 8.1-4.8 5.1 0-1.5 4.4-13.5 6-16.3 3.1-5.8 4-8.2 2.7-7.7-.8.3-2 2-2.7 4-.8 1.9-2.2 4.2-3.2 5.1-1.6 1.4-1.5.7.7-5.1 1.4-3.8 3.2-8.1 4-9.7.8-1.5 1.5-3.1 1.5-3.6 0-1.8-2.6 2.2-6.6 10.4-2.5 5.3-4.5 8.2-4.8 7.3-3-8.8-4.9-22.9-2.8-21.6.4.2 2.7.7 5.2 1.1 2.5.4 4.8.9 5.2 1.1.5.3.8.1.8-.4s-1.8-2.3-4-4.1c-3.3-2.6-4.9-4.8-7.2-9.3 0-.2.9-2.2 2.1-4.6 1.2-2.3 1.7-4.2 1.1-4.2-.6 0-1.3.7-1.6 1.5-.4.8-1 1.5-1.6 1.5-.5 0-.7-.4-.4-.8.3-.5.8-2.4 1.1-4.2.6-3.3 2.2-7 3-7 .3 0 1.8 2.6 3.4 5.7zm667.5-2.8c2.2 1.1 5.4 3.1 7 4.5l2.9 2.6-2.9.2c-1.6 0-4 .2-5.4.3-1.4 0-3.3-.3-4.3-.8-3.1-1.4-9.7-7.9-9.2-8.8.8-1.2 7.2-.1 11.9 2zm94 2.3c-.5 10.1-1.4 16.9-2.5 19.1-1.5 2.8-4 5.7-5 5.7-1.1 0-.4-11.6 1.1-17.5 1.3-5.1 4.8-12.5 6-12.5.3 0 .5 2.4.4 5.2zm71.7-1c-.9 2.2-2.2 5.7-2.6 6.8-.1.3-.7 1.8-1.4 3.5-.6 1.6-2.5 6.4-4.1 10.5-5.2 13.5-19.6 43.8-23.6 49.4-1.4 2-1.4 2-1.6.1-.1-2.1-.1-2.6.6-8.5 1.5-12.6 5.2-26.1 9.1-33.4 2.9-5.4 9.2-15.4 10.8-17.2.7-.7 3.6-4 6.6-7.3 5.5-6.4 7.7-7.7 6.2-3.9zM861 337c2.4 4.7 2.6 7.2.5 6.3-1.8-.6-4.2-5.1-3.9-7.1.1-.6.2-1.7.3-2.2.2-1.8 1-1 3.1 3zm-705.7 3.7c1.4 2.7 3.1 7 4 9.8 3.8 12.6 4.9 16.6 4.5 17-.5.5-5.6-4.2-9.5-8.8-2.6-2.9-3.1-4.2-2.4-6 .4-1.2.7-2.9.6-3.7-2-13.9-1.2-16.3 2.8-8.3zm104.3-.5c-.3 1.3-.5 2.4-.7 2.5-.1.2-.2.6-.4 1-.1.5-.7 2.1-1.3 3.6-.7 1.6-1.2 3-1.2 3.1 0 .2-.8 2.1-1.7 4.2-.9 2.2-1.7 4.3-1.7 4.7-.1 1-2.8 2.7-4.4 2.7-.7 0-1-.4-.7-1 .3-.5.8-2 1.1-3.2.7-3.3.9-3.9 2.3-7.3.7-1.7 1.1-3 .9-3-.2 0 .3-.7.9-1.5.7-.8 2.4-3 3.9-4.8 3.1-3.8 3.5-4 3-1zm595.9 4.8c3.3 3.1 3.5 5.8.3 3.6-1.2-.9-3-1.6-4-1.6s-1.8-.5-1.8-1c0-.6-.6-1-1.3-1-.7 0-2.2-.7-3.3-1.5-1.7-1.3-1.5-1.4 2.9-1.1 3.3.2 5.6 1.1 7.2 2.6zm-625.8 3c-.7 6-7.6 19.6-12.7 24.6-1.9 1.9-3.6 3.1-3.8 2.6-.5-1.7 6.7-17.5 11.5-24.8 2.6-4.1 5-7.4 5.2-7.4.2 0 .1 2.2-.2 5zm685.1.2c2.4 4.9 7.5 19.9 6.9 20.5-.2.2-1.9-3.2-3.8-7.4-1.9-4.3-4.5-8.7-5.8-9.9-1.9-1.6-2.2-2.6-1.6-5.2.8-3.9 1.5-3.6 4.3 2zm-668.3 8.1c-1.5 5.3-5.3 10.7-7.5 10.7-1.3 0-1.3-.1.9-5 1.9-4.2 7.3-12.1 7.9-11.5.2.1-.4 2.8-1.3 5.8zm667.8 2c2.3 4.2 3.7 8.8 6.1 19.7 1.3 5.5-4.4-1.4-7.8-9.4-2.4-5.8-3.1-14.6-1.1-14.6.2 0 1.4 2 2.8 4.3zm-748.5 13.3c.2.1.2 1.2 0 2.4-.3 2-.4 2.1-2.7.3-5.5-4-10.1-9.2-10.1-11.3 0-1.9.8-1.5 6.3 3.2 3.4 2.9 6.3 5.3 6.5 5.4zm766.2-9.7c0 .6-1.2 2.3-2.6 3.8-2.8 3-2.8 2.9 1-3.5.9-1.4 1.6-1.6 1.6-.3zm-102.5 8.3c1.7 2.9 1.7 3.1.1 1.9-2.1-1.7-4-5.1-2.9-5.1.5 0 1.7 1.5 2.8 3.2zm14-1.8c3.5.7 4.3 1.4 5.4 5.4 1.2 4.1-.5 5.6-5.3 4.7-3-.6-3.7-1.3-4.9-5-1.1-3-1.2-4.6-.4-5.4.5-.5 1.3-.8 1.7-.6.3.2 1.9.6 3.5.9zm-7.6 4.6c0 .9-.6.4-1.4-1-1.9-3.3-1.9-4.9 0-2.4.8 1 1.4 2.6 1.4 3.4zm94.4-.2c-.7 1.8-3.2 4.1-4.5 4.2-1.2 0-.5-2.2 1.6-4.6 2.1-2.6 3.9-2.3 2.9.4zM159 374c1.7 0 7.1 6 8.5 9.4 1.6 3.8 2.3 6.9 3.1 14.1.3 2.7.8 5.3 1.1 5.7.9 1.6-1.8.7-3.7-1.2-3.7-3.7-7.1-10.2-10-19.1-3.5-10.6-3.5-10.3-1.4-9.5.9.3 2 .6 2.4.6zm666.1.6c.7.8 3.5 2.7 6.3 4.1l5 2.5-2.7 2.4c-2.8 2.4-5.7 2.3-5.7-.2 0-.8.7-1.4 1.5-1.4s1.5-.5 1.5-1c0-.6-.8-1-1.8-1-2.5 0-5.9-2.6-6.5-5-.6-2.4.5-2.6 2.4-.4zm29.4 1.5c1.1 1.7-.1 2.1-1.5.4-.8-.9-.8-1.5-.2-1.5.6 0 1.4.5 1.7 1.1zM306 378.6c0 1.1-4.4 6.9-9 11.8-9.7 10.4-19.9 16.2-44.5 25.1-6.1 2.2 21.7-21 32.5-27.2 16.6-9.5 21-11.5 21-9.7zm610.4 1.9c.9 1.4 1.3 2.5.8 2.5s-1.4-1.1-2-2.5c-.6-1.4-1-2.5-.8-2.5.2 0 1.1 1.1 2 2.5zm-791.8 9.9c2.8 9.2 2.8 13.2 0 7.8-1-1.9-1.9-4.2-2.1-5.2-1.1-5.7-1.7-11-1.1-11 .3 0 1.7 3.8 3.2 8.4zm724.8-7.8c.9.3 1.6 1 1.6 1.5 0 1.5-4.7 4-6.3 3.3-1.5-.5-1.5-.8.1-3 1.9-2.5 2.2-2.7 4.6-1.8zm-8.4 2.1c0 .7-1.3 1.9-2.9 2.7-2.6 1.4-3 1.4-3.5-.1-.7-1.8 2-4.2 4.6-4 1 .1 1.8.7 1.8 1.4zm85.9.6c-.2.1-1.5 1.1-2.9 2.2l-2.5 2 1.9-2.3c1.1-1.2 2.4-2.2 2.9-2.2.6 0 .8.1.6.3zm-796.4 10.1c2.2 7.6 2.6 9.8 1.4 9-1-.6-2.8-4.5-3.4-7.4-.2-.8-.4-1.5-.5-1.5-.1 0-.4-1.2-.6-2.8-.5-4.7 1.5-3 3.1 2.7zm7.1 10.6c.3.8.4 1.5.3 1.5-.1 0 .3 1 1 2.2.6 1.3.9 2.3.7 2.3-1.5 0-4.4-7.6-5.2-13.5-.4-2.7.4-.9 3.2 7.5zm4.4.6c0 .7.3 1.9.6 2.8.3.9.1 1.6-.5 1.6s-1.1-1.1-1.1-2.3c0-1.3-.3-2.7-.7-3.1-.4-.3-.8-1.4-.9-2.4-.2-1.5-.1-1.4 1.2.2.8 1.1 1.4 2.5 1.4 3.2zm26.6-1.8c2.6 2 4.4 5.4 4.4 7.9 0 1.4-.5 1.2-2.5-1.2-3.1-3.7-5.8-8.5-4.8-8.5.5 0 1.8.8 2.9 1.8zm792.8 1.8c.5 1.2-6.9 15.4-8 15.4-.2 0-.8-.9-1.4-2-.9-1.6-.3-3.1 3.2-8.5 2.4-3.5 4.6-6.5 4.9-6.5.4 0 1 .7 1.3 1.6zm-827.9 3.8c4.6 4.1 4.9 4.6 3.4 6.1-.9.9-2.3 1.3-3.2.9-2.9-1.1-8.2-11.4-5.9-11.4.4 0 3 2 5.7 4.4zm55 3.1c-.3 3.1-1.5 9.9-2.6 15.3-1.1 5.3-2.3 10.8-2.5 12.1-.3 1.4-.8 2.9-1.1 3.4-.8 1.3-3.2-6.6-3.1-10.2 0-1.4-.1-3.1-.3-3.6-.8-3 1.8-11.2 5.2-16.5 2.1-3.3 4.1-6 4.4-6 .3 0 .3 2.5 0 5.5zm780.1 1.9c-1.2 2-6.6 4.3-6.6 2.9 0-1.2 2.5-5.1 4.9-7.6l2.6-2.9.3 2.7c.2 1.4-.3 3.7-1.2 4.9zM142 420c0 .8-3.4 2-5.7 2-1.8 0-.4-2.8 1.5-3.3 2.1-.4 4.2.2 4.2 1.3zm120.5 0c-.3.5-1.4 1-2.3 1-1.5 0-1.5-.2-.2-1 2-1.3 3.3-1.3 2.5 0zm-100.8 7c.7 1.9 1 3.7.7 4-.8.8-4.5-4.1-3.8-5.1.3-.5.1-.9-.4-.9s-.7-1.2-.4-2.6c.4-2.4.6-2.5 1.6-.8.6 1.1 1.6 3.5 2.3 5.4zm799.3-4c-1.4 1-2.7 1.7-2.9 1.5-.8-.8 2.2-3.5 3.8-3.5 1.2 0 1 .5-.9 2zm-786.9.7c1.3 1.6 1.2 1.7-.3.4-1-.7-1.8-1.5-1.8-1.7 0-.8.8-.3 2.1 1.3zm-22.8 3.5c3.1 2.4 5.7 4.8 5.7 5.5 0 1.5-3.1 3.2-4.7 2.6-1.8-.6-1.6-2.3.2-2.3s2-1.7.3-2.2c-.7-.3-3 .2-5.2 1-4 1.3-4.1 1.3-6.3-1.5-6.4-7.9.8-10.1 10-3.1zm106.6 4.9c-1.8 3.4-4.5 7-6 8.1-1.5 1.2-2.5 2.6-2.3 3.2.7 1.9-2.5 4.2-8.6 6.1-3 1-6.1 2.2-6.7 2.8-.9.6-1.3.6-1.3-.1 0-1.2 5.5-5.6 8.3-6.5 2.6-1 2-2.5-.8-1.9-3.2.6-3.2-.6.3-4.3 1.5-1.7 3.5-4.2 4.4-5.6 2-3.2 7.2-6.6 11.2-7.3 1.6-.3 3.1-.8 3.4-1.1.3-.3.7-.3 1-.1.2.3-1.1 3.2-2.9 6.7zm707.1-6.5c0 .4-1.7 2.9-3.7 5.6-3.6 4.9-8.4 8.1-11 7.1-1.5-.6 1.4-7 4.3-9.4 2.8-2.3 10.4-4.7 10.4-3.3zm-724 5.5c-1.2 1.6-2.5 2.8-2.7 2.5-.8-.8 2.5-5.6 3.8-5.6.6 0 .1 1.4-1.1 3.1zm673.5 5.9c0 .3 1.1 3.5 2.3 7.1 1.2 3.6 2.4 7.4 2.6 8.5.3 1 1 4.1 1.6 6.9 1.7 7.2 2.2 10.5 1.6 10.5-1.5 0-8.5-17.2-10-24.5-.3-1.1-.8-3.8-1.3-6s-.8-4.6-.7-5.3c.1-.6.2-2 .4-3 .1-1.1.7-.5 1.8 1.8.8 1.9 1.6 3.7 1.7 4zm-679.9.2c-.7 3.8-2.5 7.8-3.5 7.8-.9 0-.1-4.6 1.4-8.3 1-2.5 2.6-2.1 2.1.5zM160 437c0 .5-.9 1-2.1 1-1.1 0-1.7-.5-1.4-1 .3-.6 1.3-1 2.1-1s1.4.4 1.4 1zm6.5 8c1.4 2.7 2.2 5 1.7 5-1 0-4.3-3.6-6.7-7.4-1.7-2.5-1.7-2.6.4-2.6 1.5 0 2.8 1.4 4.6 5zm783.3-1.1c-.7.8-2.3 2.7-3.5 4.1-2 2.1-2.3 2.2-2.3.6 0-2.8 3.8-7.6 5.6-6.9 1.2.4 1.2.8.2 2.2zm-722.4 1c1.4 2.2-6.6 21.7-8.4 20.6-1.1-.7-.3-11 1.1-13.6 1.6-3.2 5.2-7.8 6.1-7.8.4-.1.9.3 1.2.8zm18.6 5.6c0 .3-.4 1.1-1 1.8-.5.7-2.1 2.6-3.4 4.2-2.8 3.5-12.8 8.8-15.7 8.3-2-.3-1.9-.5.9-4.3 1.7-2.3 5-5 7.8-6.3 2.7-1.3 5.6-2.8 6.4-3.2 1.7-1 5-1.3 5-.5zm-56.4 7.7c-.6 7.5-.4 6.8-1.5 6.8-1 0-.8-4.7.3-9.8 1.2-5.1 1.8-3.7 1.2 3zm27.1 8.9c-.2 1.9-.7 3.4-1.2 3.4-1 0-1.5-6-.7-8.4.8-2.3 2.2 1.3 1.9 5zm17.4-2.2c-1.1 2-5.8 4.5-10.6 5.5l-3 .7 2.5-2.1c1.4-1.1 3-2 3.5-2 .6 0 2.6-.9 4.5-1.9 4.4-2.5 4.3-2.5 3.1-.2zm664.6 1.8c.4 1 .9 2 1.2 2.3 1.4 1.2 6.4 12 5.9 12.6-.9.8-7.6-9.5-8.7-13.4-1-3.4.4-4.6 1.6-1.5zM213 470.5c.4 3.8 0 6.5-1 6.5-.5 0-1-2.3-1-5.2 0-4.9 1.6-5.9 2-1.3zm706.9 5l3.3 8.6-3.1 6.5c-1.7 3.6-3.1 7-3.1 7.5 0 .6-.6.9-1.2.7-1.3-.5-2.4-4.5-3.2-11.8-.3-2.5-.8-5.9-1.1-7.6-.6-3.1 2.6-12.4 4.2-12.4.4 0 2.3 3.9 4.2 8.5zm-693.8-.8c-.6 1-3 4-5.5 6.8-2.5 2.7-5.6 6.5-6.8 8.2-4.7 6.7-4.3 3.2.7-6.6 1.4-2.8 2.5-5.7 2.5-6.5 0-2 2.2-3.1 6.6-3.4 3.1-.2 3.4-.1 2.5 1.5zm675.3 5.6c4.3 5.8 6.9 11.3 6.3 13-.2.7-1 0-1.7-1.6-.7-1.5-1.7-2.7-2.2-2.7-.4 0-.8-.7-.8-1.5s-.4-1.5-1-1.5c-.5 0-1-.5-1-1 0-.6-1.1-2.8-2.5-5s-2.5-4.2-2.5-4.5c0-1.6 1.9.1 5.4 4.8zm-691.9.6c-.1 4.4-1.5 5.1-1.5.8 0-2.1.4-3.7.8-3.7s.7 1.3.7 2.9zm687.7 1.8c4.5 5 9.2 13.7 13 24.3 1.9 5.5 3.5 14 2.5 14-.3 0-4.6-4-9.5-8.8-8.7-8.5-9-9-9.6-14.3-1.5-12.9-1.4-17.9.3-17.9.4 0 1.9 1.2 3.3 2.7zm-691.5 7.5c-.3.7-.5.2-.5-1.2s.2-1.9.5-1.3c.2.7.2 1.9 0 2.5zm718.3 1.4c0 .3-.5 1.4-1.1 2.5-.6 1.1-1.2 2.8-1.4 3.7-.4 2.3-4.3 11.2-4.9 11.2-.8 0 1.6-8.6 3.7-13.2 1.9-4.1 3.7-6.2 3.7-4.2zm.7 6.6c-.3.8-.6.5-.6-.6-.1-1.1.2-1.7.5-1.3.3.3.4 1.2.1 1.9zm-.2 2.8c.3.5.1 1-.4 1-.6 0-1.1-.5-1.1-1 0-.6.2-1 .4-1 .3 0 .8.4 1.1 1zm-.5 3c0 .6-.7 2.7-1.7 4.8-.9 2-1.5 4.1-1.4 4.5.1.5-.4.5-1 .1-.9-.5-1-.2-.6.9.3 1 .2 1.7-.3 1.7-1.5 0-1.2-1.7.6-4.6.9-1.3 1.4-2.7 1.1-3.1-.4-.3.1-1.2 1.1-1.9 1.1-.9 1.3-1.3.4-1.4-.7 0-1-.5-.7-1 .8-1.3 2.5-1.3 2.5 0zm4.5 6.7c1.7 10.9 1.5 12.5-2.6 20.8-2.1 4.4-4.3 9.3-4.9 10.9-1.7 4.8 1.3 1.4 4.1-4.6 2.6-5.8 4.6-8.4 5.7-7.4 1.3 1.4.6 19.2-.9 21.3-4 5.6-9.1 10.5-10.1 9.5-.7-.7-1.1-8.2-1.2-20.4l-.1-19.3 3.8-7.8c2.1-4.2 4.1-7.7 4.6-7.7s1.2 2.1 1.6 4.7zm-20.7 8.8c4 4.4 5.9 8.1 4.8 9.2-.3.4-1.8-.7-3.4-2.3-1.5-1.6-5.1-4.9-8-7.2-4.7-4-6.3-6.8-4.6-8.5.9-.8 6.3 3.4 11.2 8.8zm-2.4 6.6c-.2.3.7 1.1 1.9 1.8 2.8 1.6 6.5 6.4 4.2 5.5-.8-.3-1.5-1-1.5-1.5s-.3-.8-.7-.7c-1.2.4-9.1-5.2-9.7-6.8-.3-.8-.1-1.4.5-1.4s.7-.6.2-1.3c-.4-.6.7-.1 2.4 1.3 1.7 1.4 2.9 2.8 2.7 3.1zm-30.3 6.2c-1 .9-1.1.8-.5-.6.3-1 .9-1.5 1.2-1.2.3.3 0 1.1-.7 1.8zm32.2.8c6.4 4.2 8.5 7.1 8.5 11.9.1 4.5-1.2 5.8-3.6 3.8-.9-.8-2.9-1.9-4.4-2.6-2-.8-3-2.2-3.8-5.4-.6-2.4-1.5-5.3-2-6.6-2.2-5.1-1.1-5.4 5.3-1.1zm-727.4 5.4v2l-.9-2c-.5-1.1-.9-2.7-.9-3.5-.1-1.3 0-1.3.9 0 .5.8.9 2.4.9 3.5zm700.2-.2c1.5 3.8 1.5 4.7.1 9-1.6 5.2-2.8 5.9-4.1 2.4-1.8-4.9-.6-15.7 1.8-15.7.4 0 1.4 1.9 2.2 4.3zm-706.6 5.4c-.4 4-2.3 8.3-3.6 8.3-1.1 0-.5-4.1 1.2-8.8 1.2-3.1 2.7-2.8 2.4.5zm-8.5.9c0 .8-.4 1.2-1 .9-.5-.3-1-1-1-1.6 0-.5.5-.9 1-.9.6 0 1 .7 1 1.6zm720 3.2c0 1-.4 2.2-.9 2.7-.5.6-1.4 2.7-2.1 4.7-.6 2.1-1.6 3.8-2.1 3.8-.6 0-.8-.4-.5-.8.3-.5.8-2.2 1.1-3.8 1.2-5.6 2.4-8.4 3.6-8.4.5 0 .9.8.9 1.8zm-720.6 4.4c2.1 5.1 2.8 8.8 1.6 8.8-1.3 0-4-5.3-4.4-9-.5-4 1.2-3.8 2.8.2zm15.1 11.1c2.5 7.7 2.3 8.6-2.7 14.1-2.2 2.4-3.4 1.5-1.9-1.2 1.6-3.1 1.3-4.4-.8-3.7-1.6.5-2.1-.2-3.1-4.7-2-8-1.8-10.6 1.2-14.3l2.1-2.7 1.4 2.6c.8 1.5 2.5 5.9 3.8 9.9zm693.9-8.8c.7 3.9 3.1 13.5 4.1 16 .6 1.6.4 1.5-1-.4-1-1.3-1.9-3.7-2.1-5.3-.2-1.6-.6-3.3-.8-3.7-.7-1.1-1.9-10.7-1.3-10.1.3.3.8 1.8 1.1 3.5zm40.4-1.5c2.2 2.1 2.9 4 1.4 4-.9 0-3.3-2.5-4.6-4.8-1.1-1.9.8-1.4 3.2.8zm-23 6.3c7 15.6 8.4 22.1 6.3 29.4-1.6 5.8-2.7 6-4 1-.5-2.3-3.2-8.6-6-14-4.7-9.4-5.1-11.3-3.8-17.7.4-2.2 2.7-6 3.5-6 .4.1 2.2 3.3 4 7.3zm38.7-.4c-.3 1.1-.8 3-1 4.3-1.4 7.4-6.7 18.9-8.1 17.6-.5-.6-.7-5.8-.5-11.4.1-1.6 8.6-12.4 9.9-12.4.2 0 .1.9-.3 1.9zm40.3.1c-.7 1-1.4 1.7-1.7 1.5-.4-.4 1.8-3.5 2.5-3.5.2 0-.1.9-.8 2zM164 564c.4 0 1 1 1.3 2.2l.6 2.3-2-2.4c-1-1.3-1.8-3.1-1.8-4 .1-1.4.2-1.3.6.1.2 1 .8 1.8 1.3 1.8zm-3 2.3c0 .5-.7.4-1.5-.3s-1.5-2-1.5-2.9c.1-1.3.3-1.3 1.5.3.8 1.1 1.5 2.4 1.5 2.9zm755 .8c0 .6-.4.7-1 .4-.5-.3-1-1.1-1-1.6 0-.6.5-.7 1-.4.6.3 1 1.1 1 1.6zm55 4.8c-.4 1.6-.6 3.1-.4 3.4 1.2 1.1-1.8 5.8-4.6 7.2-1.8.9-3.4 1.5-3.6 1.2-.2-.2.3-2.7 1.2-5.4 2.6-8 9.6-14 7.4-6.4zm-807.3 1.8c2.9 2.8 4.2 4.9 4.7 7.8.8 4.5 4.1 13.9 7.4 20.7.2.5-.6.8-1.6.8-2.3 0-14.7-11.2-16.7-15-1.1-2.1-1.5-12.2-.6-17.3.3-1.7 3-.5 6.8 3zm794.7-.6c-.4.8-.9 2-1 2.9-1 11.3-3.2 19-5 18.3-1-.3-1.3.4-1.3 2.9.1 3.5-1.1 7.2-3.4 10-1.4 1.8-3.9 2.5-3.5 1 .1-.4-.1-2.8-.6-5.4-1-6.5.3-8.2 2.5-3.2 1.3 2.9 1.8 3.4 1.8 1.7.1-1.2-.4-3.4-.9-4.9-.8-1.9-.7-3.7 0-6 1.4-4.2 2.6-4.3 3.5-.4 1.1 5 2.4 3.3 1.9-2.5-.4-4.5 0-6.6 2.2-11.6 1.7-3.8 3.1-5.6 3.7-5 .5.5.6 1.5.1 2.2zm3.2 5.6c-1.1 1.1-1.7-.4-.9-2.3.7-1.8.8-1.8 1.1-.1.2 1 .1 2.1-.2 2.4zm-777.3 9.1l2.7 8.2-1.9 4.7c-2.4 6.1-4.5 7-3.8 1.7.2-2.2 1-5.1 1.6-6.7 1.2-3.1-.3-3.7-1.9-.7-1.4 2.6-2.7 2.5-3.6-.3-2.4-7.1-2.2-10.8.7-15.7 2.5-4 2-4.8 6.2 8.8zm699.2-4.5l1.8 3.2-2.2-2c-2.9-2.5-4.7-5.7-2.8-4.9.7.2 2.1 1.9 3.2 3.7zm84.3 2c-1.4 1.4-5.3 3.7-6.2 3.7-1.7 0-.2-1.8 2.7-3.3 4-2 5.3-2.1 3.5-.4zm-68.3 12.3c-2.2 5.8-3.9 4-2-2.3.7-2.3 1.1-4.3.8-4.3-.2 0-.1-.5.3-1.2.5-.8 1.1-.5 1.7 1 .7 1.6.5 3.4-.8 6.8zm-11-3.2c2.5 4.2 3.3 6.5 4 11.3.2 1.2.6 2.7 1 3.2.3.6.4 1.1 0 1.1-.3 0-2.1-3.3-4-7.4-5.5-11.9-6.1-16.9-1-8.2zm76.1-2.9c-1.1.8-2.7 1.5-3.5 1.5-1-.1-.7-.6.9-1.5 3.3-1.9 5-1.8 2.6 0zm1.9 5.6c-.9 6.2-4.1 11.1-8.8 13.6-1.6.8-3.5 1.2-4.2.9-.8-.3-1.5-.1-1.7.4-.2.6-.9.6-1.7 0-1.2-.7-.9-2 1.8-7.4 2.7-5.6 4-7 7.9-9.1 6.7-3.5 7.4-3.3 6.7 1.6zm-803.8-.4c4.3 4 6.5 5.7 10 7.8 3.2 1.9 6.1 6 5 7.1-1.8 1.8-15.4-9.2-18.3-14.8-1.8-3.6-.5-3.6 3.3-.1zm28.1 6.1c.8 2.5.5 3.6-2 7.7-2.6 4.2-3.1 4.6-4 3.1-1.4-2.5-.3-9.3 1.8-11.7 2.3-2.6 3-2.4 4.2.9zm725.7.4c-.3 1.3-.7 4-.9 6-.2 2-.9 4.5-1.6 5.5-.8 1.4-.9.6-.4-3.7.7-5.7 1.9-10 2.9-10 .3 0 .3 1 0 2.2zm-753 2.3c2.2 1.9 7.3 5.3 11.3 7.7 8.7 5.2 8.2 6.1-.8 1.5-14-7.3-16-8.6-16-11.5 0-1.9 1.2-1.4 5.5 2.3zm777.8 11.4c-4.1 7.2-9.2 14.9-10.4 15.7-1.8 1.1-2.8-1.7-2.5-7.1.2-4.3 1.1-6.3 6.7-14.3l6.4-9.3 1.2 5.1c1.1 4.9 1 5.5-1.4 9.9zm-41.2-11.6c-1 .9-1.1.8-.5-.6.3-1 .9-1.5 1.2-1.2.3.3 0 1.1-.7 1.8zm-731.3 8.8c4.2 2.3 9.3 5.7 11.2 7.6l3.5 3.4-3-.4c-1.6-.3-5-.8-7.5-1.2-4.9-.8-9.7-3.2-10.4-5.2-.7-1.8.4-1.6 5.8.7 7.4 3.1 5.3.4-2.4-3.1-3.8-1.8-7-3.9-7-4.6 0-2 1.5-1.6 9.8 2.8zm22.5-2.9c-.4.7-.8 1.5-.8 1.8-.1 1.2-2.4 4.4-2.5 3.3 0-1.9 2.2-6.3 3.2-6.3.5 0 .6.6.1 1.2zm769 1.4c.8.9-5.5 10.2-7.3 10.8-.8.3-4.2 1.4-7.4 2.5-3.3 1.2-6.1 1.9-6.3 1.7-.5-.5 7.2-5.5 10.5-6.8 1.5-.6 2.2-1.2 1.5-1.5-.6-.2-2.5.3-4.1 1.1-3.7 1.9-4.4 1.2-2.6-2.2 1-2 2.8-3.1 7.1-4.4 6.6-1.9 7.7-2 8.6-1.2zm-826.6 2.2c.1.9.3 2.2.5 2.9.2.6-.1 1.3-.7 1.4-.5.2-1.1-1.1-1.3-2.9-.2-1.7.1-3.2.5-3.2.5 0 .9.8 1 1.8zm-8.2 4c-.6.7-3.5-1.8-3.5-3.1 0-.5.9-.2 2 .8s1.8 2 1.5 2.3zm13.8-.9c1 1.8 1.7 5 1.7 8.2 0 5.1-.1 5.2-1.7 3.3-2.9-3.2-4.3-6.3-3.4-6.9.6-.3.6-1.8 0-3.8-1.1-4-1.1-3.7.4-3.7.7 0 2 1.3 3 2.9zm53.2.8c-1.9 4.6-4.1 7.1-2.6 3 1.4-3.7 3-6.7 3.6-6.7.3 0-.2 1.7-1 3.7zm721.9-.2c-.4.8-.8 1.5-1 1.5-.2 0-.4-.7-.4-1.5s.4-1.5 1-1.5c.5 0 .7.7.4 1.5zm-720.2 5.3c-.9 2.3-2 4.2-2.4 4.2-.4 0 0-1.7.9-3.8 1.9-4.6 2.4-5.4 2.9-4.9.2.2-.4 2.2-1.4 4.5zm-43.2 3.7c1.9 2.1 8.1 8.7 13.7 14.5 9.5 9.6 10.9 11.7 10.3 14.5-.4 2-1.2 12.1-1.2 14 .1 1.6-.1 1.7-.8.5-.5-.8-1-3.3-1-5.5 0-5.5-1.9-8.4-2.1-3.3-.3 7.5-.6 7.7-5.1 3-6.6-6.9-9.1-13.9-7.2-20.9.6-2 1.2-1.4 5.7 5 6.5 9.3 6 9 7.3 6.2.8-1.6.8-2.4.1-2.2-.5.1-4.2-3.5-8.1-8-3.9-4.5-7.3-7.9-7.6-7.7-.2.3.2.9.9 1.4 1.2.7 1.2 1.3 0 4.1l-1.3 3.3-1.1-4.4-1.1-4.5-.8 3.8c-.6 3.3-.9 3.7-2.2 2.6-3.3-2.7-4.6-6.9-5.8-19.4-.5-4.7 1.3-4 7.4 3zm49.5-4.4c.8 2.4-4.5 13.7-6 12.9-1.7-.9-1.2-5.3 1.2-10.3 2.6-5.1 3.8-5.8 4.8-2.6zm-67.5 5c0 1.5-1.1 1-4.7-1.7-4.7-3.5-4.1-5 .7-1.8 2.2 1.5 4 3.1 4 3.5zm43.8-2.5c4.2.7 8.2 2.4 8.2 3.6 0 1.3-9.5 0-14.2-1.9-2.1-.8-3.6-1.9-3.3-2.3.5-.8 1.5-.8 9.3.6zM273 630c-.6 1.2-1.4 1.9-1.7 1.6-.4-.3 0-1.8.8-3.2.7-1.4 1.5-2.1 1.7-1.5.2.5-.2 2-.8 3.1zm-143 .2c0 .5.4.7.8.4.9-.5 3.3 1.4 6.4 5.3 2.1 2.5 1.8 2.6-2.9.6-5.6-2.4-11.1-9-6.3-7.8 1.1.3 2 1 2 1.5zm72.5 3.1c-.3 3.2-4.1 10.7-5.4 10.7-1.4 0-.4-5.4 1.8-10.3 2.4-5.2 4.1-5.5 3.6-.4zM265 631c.6 1.1.8 2 .6 2-.3 0-1-.9-1.6-2-.6-1.1-.8-2-.6-2 .3 0 1 .9 1.6 2zm-96 2c2.2 3.1 1.3 4.1-1.4 1.4-1.5-1.4-2.2-4.4-1.2-4.4.3 0 1.4 1.3 2.6 3zm17.8-.4c1.2.8 2.2 1.8 2.2 2.3 0 .5.3 1.7.7 2.6.5 1.5.1 1.7-3.8 1.2-7.5-.9-13.9-4.5-13.9-7.8 0-1.5 11.8-.1 14.8 1.7zm758.2-1.3c-1.4.8-2.7 1.2-3 1-.7-.6 2.3-2.3 4-2.3.8 0 .4.6-1 1.3zm-18.8 4.9c-.8.8-.9.4-.5-1.3.4-1.3.8-1.8 1.1-1 .2.7-.1 1.8-.6 2.3zm-652.2-.3c0 1.3-2.9 3.5-3.7 2.8-.7-.8 1.5-3.7 2.8-3.7.5 0 .9.4.9.9zm-137 3.6c0-.3 1.2.3 2.7 1.2 3.3 2.2 8.4 7.7 13.5 14.7 2.1 2.8 4.2 5.7 4.9 6.4.6.7.9 1.6.6 1.9-1 .9-11.9-2.1-15.1-4.2-2.9-1.9-10.4-13.7-12.5-19.6l-.9-2.7 3.4 1.4c1.9.8 3.4 1.2 3.4.9zm127.3 8.9c.9 3.3 1.1 5.6.5 5.4-2.1-.7-6.4-12-5.3-13.9 1.1-1.6 3.1 2 4.8 8.5zm657.3-4.2c-1.2 1.6-1.6 1.8-1.6.7 0-.9.3-1.9.8-2.3.4-.4.8-1.2.8-1.7.3-2.1.7-2.3 1.1-.7.2 1-.3 2.8-1.1 4zm-729.5-1.3c3.6 2.9 2 3.2-3.1.6-4-2.2-4.2-2.4-1.9-2.5 1.5 0 3.7.9 5 1.9zm10.6 1.5c-.7 1.4-1.3 2.3-1.5 2.1-.7-.6.9-4.5 1.8-4.5.4 0 .3 1.1-.3 2.4zm-25.9.8c.7.7 1.2.9 1.2.5s1.7.3 3.8 1.6c2 1.3 6.6 3.7 10.2 5.4 10.5 4.9 13.2 7.9 20.4 22.7 8.2 16.9 11 22.9 11.2 24.1.2.5 2.6 6.3 5.4 12.8 2.9 6.5 5 12 4.8 12.2-1 1-18-13-22.7-18.7-3-3.7-8.9-13.5-14.3-24.1-5-9.8-11.4-21.1-14.2-25-7.1-10-8.8-12.7-7.8-12.7.4 0 1.3.5 2 1.2zm8.2-.2c0 .5-.2 1-.4 1-.3 0-.8-.5-1.1-1-.3-.6-.1-1 .4-1 .6 0 1.1.4 1.1 1zm87.8 2c-1.1 1.8-2.8 2.7-2.8 1.6 0-.6 3-3.6 3.6-3.6.2 0-.1.9-.8 2zm-13.3 2.7c.3 1.5 1.6 4 2.7 5.6 2.1 2.9 3.2 8.7 1.7 8.7-1.5 0-5.7-9.5-6.2-13.8-.4-4.5.7-4.8 1.8-.5zm14.9 1.6c-.2.7-1.4 1.8-2.5 2.5-2.2 1.4-2.1.6.4-2.6 1.2-1.6 2.8-1.6 2.1.1zm-17.4 4.8c0 .6 1.4 4.3 3.2 8.2 3.1 7.1 4.1 15.8 2.1 17.8-1 1-9.4-11.1-9.5-13.7 0-2.1 1-8.8 1.8-11.7.6-1.9 2.4-2.4 2.4-.6zm17.7 6.3c-.5 6-3.8 13.6-6 13.6-.5 0-.5-3.5-.2-7.8.6-6.7 1-8 3.3-9.9 1.5-1.2 2.9-2.2 3-2.3.2 0 .2 2.9-.1 6.4zm-94.9-1.3c.7 2.2.9 4.6.5 5.2-.4.7-.8 2.8-.9 4.7-.2 6.8-.4 8-1.3 8-2.6 0-3.1-8.8-1.2-21.3.3-1.9 1.7-.3 2.9 3.4zm4.8 15.3c-.6 6.5-2.5 10-2.7 5-.2-3.3-.2-10.4 0-14.9l.2-3 1.5 3.5c1.1 2.4 1.4 5.3 1 9.4zm-22.8-5c1.9 1 3.1 2 2.8 2.3-.6.6-12.4-3.6-13.1-4.7-.7-1.2 6.8.5 10.3 2.4zm738.9 2.1c-.3 2.8-1.7 4.6-1.7 2.2 0-1.8 1-4.7 1.6-4.7.3 0 .3 1.1.1 2.5zm-707 14.9c.4 4.3.2 6.6-.5 6.6-.5 0-2.6-1.6-4.7-3.7-3.8-3.8-3.8-3.9-2-12.8 1.4-7.2 1.7-7.3 4.2-1.8 1.3 2.8 2.6 8.1 3 11.7zm-30.2-12.5c1.1-.1 6.5 2.6 6.5 3.2 0 1.1-9.3-.2-12.2-1.7-1.6-.8-2.8-2.1-2.8-2.9 0-1.2.5-1.2 4 0 2.2.8 4.3 1.4 4.5 1.4zm779.5 1.8c-1.8 1.5-4 3.2-4.9 3.7-.9.5-2.2 1.6-2.9 2.3-1.5 1.4-3.2 1.7-3.2.5.1-2.7 12.3-11.2 13.9-9.7.2.2-1.1 1.7-2.9 3.2zm-687.2-.2c4.3 5 7.3 12 6.6 15.6-.3 1.9-.7 4.3-.9 5.4-.1 1.1-.3 2.2-.4 2.4 0 .2-1.6-1.2-3.5-3.1-5.1-5.2-6.7-11.2-5.7-21.6.2-1.9 1.5-1.4 3.9 1.3zm17.2 1c0 3.3-4.2 10.4-6.2 10.5-1.4 0 .2-6.2 2.4-9 2.6-3.2 3.8-3.7 3.8-1.5zm619.4 7.1c-2.9 7.9-7.4 16.5-7.4 14.4 0-5 4-15.9 7-19.2 2.8-3.2 2.9-1.8.4 4.8zM165 681c0 .5-.5 1-1.1 1-.5 0-.7-.5-.4-1 .3-.6.8-1 1.1-1 .2 0 .4.4.4 1zm765.4 2.5c-.4.8-1.1 1.5-1.6 1.5-.6 0-.5-.6.2-1.5.7-.8 1.4-1.5 1.6-1.5.2 0 .1.7-.2 1.5zm-761.9 1c1.7.4 4.1.9 5.5 1.2 3.1.5 11.4 8.4 9.9 9.4-3.2 1.9-13.4-2.4-19.1-8.3-3.2-3.3-3.5-4.1-1-3.5.9.3 3.1.8 4.7 1.2zm756.3.9c-2.3 4.3-5.4 7.8-8.1 9.3-1.6.8-3.1 1.2-3.4 1-1.5-1.6 8.2-12.4 11.1-12.4 1.2 0 1.3.5.4 2.1zM272 689.9c0 2.3-4.5 7.9-5.5 6.9s.2-4.1 2.6-6.6c2.4-2.7 2.9-2.7 2.9-.3zm-71.7 6.7c1.5 2.5 2.7 5.1 2.7 5.9 0 .7.7 1.6 1.6 1.9.9.4 1.4.9 1.1 1.2-.3.4.4 1.5 1.6 2.5 1.2 1 1.7 1.8 1.1 1.9-1.4 0-11.3-9.7-11.6-11.3-.4-3.2-.3-6.7.2-6.7.3 0 1.7 2.1 3.3 4.6zm728.9-2.4c-.9.9-1.5.9-2.4 0-.9-.9-.7-1.2 1.2-1.2s2.1.3 1.2 1.2zM909 698c-.6 1.1-1.6 2-2.2 2-.6 0-.3-.9.7-2s2-2 2.2-2c.2 0-.1.9-.7 2zm-721.5 1.1c.7.7-.3.9-2.9.7-2.2-.2-4.1-.8-4.3-1.5-.5-1.4 5.6-.7 7.2.8zm69.5 1.6c3.1 4.5 5.2 9.3 4.1 9.3-.5 0-1.9-1.7-3.2-3.8-5.2-8-6-12.9-.9-5.5zm666-1.7c-1.4 1.1-3.6 2.3-5 2.6-1.4.4-2.9.9-3.5 1.3-.5.3-1.4.6-2 .7-.5.1-1.8.5-2.7.9-1.1.4-1.8.3-1.8-.4 0-1.4 6.5-5.4 9.4-5.8 1.1-.2 2.2-.6 2.5-.8.2-.3 1.6-.5 3-.5h2.6l-2.5 2zm-727.8 5.4c1.1.8 1.6 1.6 1.1 1.9-1.3.7-10.3-2.2-10.3-3.4 0-1.4 6.6-.3 9.2 1.5zm71.5 4.6c-.6 2.2-1.4 3.5-1.8 2.9-.7-1.2 1.1-6.9 2.2-6.9.3 0 .1 1.8-.4 4zm-7 5c.6 1.6.8 3 .3 3-.8 0-4.1-5.1-5.4-8.5-.7-1.8-.6-1.8 1.6.2 1.3 1.2 2.8 3.6 3.5 5.3zm-17 7.8c3.6 6.7 4 9.7.5 4-2.9-4.7-8.2-15.4-8.2-16.4 0-1.1 3.1 3.9 7.7 12.4zm569.1-7.6c-.7 1.3-1.1 2.7-1 3.1.1.5-.3.5-.9.1-.8-.5-1-.2-.6.8.3.9-.4 4.6-1.6 8.4-1.7 5.3-2.3 6.3-2.5 4.2-.2-1.4.6-4.5 1.7-6.7 2.4-4.6 2.6-5.5.9-4.5-1.2.8-.7-.4 2.4-4.9 2.3-3.3 3.4-3.6 1.6-.5zm60 4.5c0 6.9-1.5 10.2-5.7 12.6-3.8 2.2-3.9 1.4-.3-7.1 1.6-3.7 3.2-8 3.6-9.5 1.1-4.4 2.3-2.3 2.4 4zm-53.2-3.5c-1.7 8.2-3 13.5-3.7 14.8-.4.8-1.7 3.6-2.9 6.2-3 6.7-6.1 8.3-4.1 2.2.6-1.6 1.2-4.3 1.5-5.9.7-4.4 2.1-8.3 5-14.3 2.7-5.3 5-7 4.2-3zM261 727c.6 2.5 1.3 5.3 1.6 6.2 1 3.5-1.5 1.7-2.7-2-1.4-4.1-1.5-4.2-2.4-9.2-.7-3.3-.6-3.4.8-1.5.8 1.1 2 4.1 2.7 6.5zm596.1-1.2c-.4 1.5-.7 4.5-.6 6.7.2 4.6-1.9 11.1-5.5 17.2-3.4 5.8-4.6 5.5-4.3-1 .6-11.6 1-13.2 5.3-19.9 4.2-6.8 6.5-8.1 5.1-3zm-671.5.9c4.4 4.1 9.4 10.2 9.4 11.5 0 1.4-6.6-3.5-10.7-8-5.3-5.7-4.2-8.5 1.3-3.5zm13.2 1.4c4.2 1.1 7.7 2.1 7.8 2.2 1.4 1.8 6.3 11.9 6.8 13.9 1.2 5.2-5.5 2.3-7.7-3.3-.9-2.2-2-3.9-2.7-3.9-.8 0-.8.6 0 2 .8 1.5.8 2-.2 2-1.6 0-12.8-12-12.8-13.7 0-1.6-.4-1.7 8.8.8zm660.4 2c-.3 2.1-.7 2.7-1.3 1.8-.4-.7-.4-2 .1-3 .5-.9.6-2 .2-2.4-.4-.5-.2-.5.4-.2.6.3.9 2 .6 3.8zm-690.1.6c.8.9.9 1.4.3 1-.6-.3-2.6-.9-4.5-1.2-4.6-.8-4.9-1.5-.7-1.5 2.1 0 4.1.7 4.9 1.7zm703.2 2.6c.3.8.2 1.9-.2 2.6-.8 1.2-14.1 8.4-14.1 7.6 0-2.1 2.9-5.7 6.8-8.3 5.2-3.5 6.7-3.8 7.5-1.9zm-696.5 1.1c.3.3-.6.6-1.9.7-4.4.2-7.4-.3-8.4-1.3-.7-.7.7-.8 4.4-.5 2.9.3 5.6.8 5.9 1.1zm627.8 8.3c-.1 2.9-.5 5.5-.8 5.9-1.1 1-2.5-5.8-2.1-9.5.9-8 3.2-5.1 2.9 3.6zm-590-6.2c1.5 1.5 3.9 7.3 3.3 8-.2.2-1.6-1.9-3.2-4.6-2.7-5-2.8-6.1-.1-3.4zm600.3 2.5c-1.3 2.2-2.7 4-3.2 4-.6 0-.6-.5 0-1.3.5-.6 1.7-2.4 2.6-4 2.7-4.2 3.1-3.2.6 1.3zm-630.9-.5c1.3 1.6 1.6 1.5-6 2-3.1.2-9-1.8-9-3 0-.3 3.1-.5 6.9-.5 4.9 0 7.2.4 8.1 1.5zm7.5 2.5c.3.6-.5 1.4-1.9 2-1.4.5-2.6 1.4-2.6 1.9 0 1.1 4.4.5 6.9-.9 1.8-.9 11.2 2.9 10.8 4.3-.1.5-2.6 1.7-5.5 2.6-5.2 1.8-5.4 1.8-11.5-.4-5.7-1.9-11.7-5.1-11.7-6.1 0-.8 5.4-2.5 9.5-3.1 2.2-.3 4.2-.7 4.4-.9.6-.6.9-.5 1.6.6zm31.5 3.5c1.8 5.4.5 6.5-1.8 1.5-1.9-4.3-2-6.6-.2-5.5.5.3 1.4 2.1 2 4zm647.9-.7c-.8 2.2-2.2 3.1-8 5-11.2 3.8-10.6 1.1 1.1-5.1 3.6-1.9 6.8-3.3 7.2-3.1.4.3.2 1.7-.3 3.2zm-619.5.7c1.3 1.9 1.3 2.3.2 1.9-.8-.3-1.6-1.4-1.9-2.5-.7-2.5-.3-2.4 1.7.6zm594.2 7.3c-.2 6.5-.7 9.6-2.1 12-2.8 4.7-4.4 4.1-4.4-1.6 0-2.6-.2-5.6-.4-6.6-.5-2.9 4.4-12.4 6.5-12.6.3 0 .5 4 .4 8.8zm-44 .4c.2 2.1 0 3.8-.4 3.8-1.1 0-3.1-5.7-2.7-7.7.2-1 .4-2.3.5-2.8.2-2.2 2.3 3.2 2.6 6.7zm-573.1-3.1c-.4.5-.2.9.3.9s.9.7.9 1.6c0 1.4-.2 1.4-1.4-.2-1.5-2.1-1.8-4.8-.3-3.9.6.4.8 1.1.5 1.6zm637.5.7c0 .5-1.2 1.4-2.7 2.1l-2.8 1.1 2.4-2c2.6-2.2 3.1-2.4 3.1-1.2zm-657.5 1.7c-2.2.8-5.1 1.4-6.5 1.4-2.4 0-2.4 0 .5-1.3 1.7-.7 4.6-1.3 6.5-1.3l3.5-.1-4 1.3zm13 3.1c2.4 1.6 2.6 3.7.2 2.9-.7-.2-2.8-.6-4.7-.9-1.9-.3-4.4-.7-5.5-1-1.1-.2-2.3-.5-2.7-.5-.5-.1-.8-.6-.8-1.1 0-1.7 10.8-1.2 13.5.6zm642.8-.1c-.6 1.7-8.2 6-9 5.1-.4-.4 8.4-6.5 9.4-6.6.1 0 0 .7-.4 1.5zm-65.8 6.8c.4 3.3.2 7-.6 9.8-3.3 11.5-3.8 11.5-3.4-.3.5-11.6 1.2-16.1 2.5-15.3.5.3 1.2 2.9 1.5 5.8zm38.8 6.1c-.2 2.3-1.1 4.7-1.8 5.5-1.2 1.3-1.4.6-.9-4.5.3-3.2.8-6.6 1.1-7.4.9-2.6 2 1.9 1.6 6.4zm22.2-4.5c-2.1 4.1-10.1 9.1-14.6 9.1-3.2 0 2.8-6.2 9.3-9.7 6-3.2 7.2-3.1 5.3.6zm-50.2 2.5c-1 1.3-2 2.2-2.2 2-.4-.4 2.9-4.4 3.6-4.4.2 0-.4 1.1-1.4 2.4zm23.1 7.5c-.3 4.8-2.7 10.1-4.6 10.1-.5 0-.7-.8-.4-1.8.3-.9 1-3.7 1.6-6.2 1-3.8 2.6-7 3.5-7 .1 0 .1 2.2-.1 4.9zm-24.1 1.1c-.3 1.1-.9 1.8-1.3 1.5-.4-.3-.7.3-.6 1.3 0 .9-.5 1.6-1.2 1.4-.8-.1-1.1.2-.7.8.9 1.4-1.4 4.2-2.8 3.3-.5-.3-.7-.2-.4.4.8 1.2-1.9 5.1-2.8 4.1-1-.9 3.1-8.3 6.5-11.8s4-3.7 3.3-1zm29.6 9c-1.8 1.6-3.5 2.7-3.8 2.4-.6-.6 4.8-5.4 6.1-5.4.5 0-.5 1.3-2.3 3zm-558.6 10c6.1 2.3 14.6 10 11.1 10-1.7 0-14.2-7.8-17.8-11.1-1.6-1.5 1-1 6.7 1.1zm121.6 8.5c0 .5-1.3-.5-2.9-2.3-1.7-1.8-3-3.8-3-4.5.1-1.4 5.9 5.3 5.9 6.8zm-128.5-3.7c.3.5-.1.9-.9.9s-1.2-.4-.9-.9c.3-.4.7-.8.9-.8.2 0 .6.4.9.8zm28.8 2.6c3.9 1.7 5.6 3.9 6.4 8.4.3 1.5.7 2.9 1 3.1.4.4.8-4.4.5-6.2-.2-1.6 3.5-.5 12.3 3.8 6.7 3.2 9.6 5.2 10.6 7.2 1 2.2 1.4 2.4 1.7 1.1.7-2.9 5.3 0 5.9 3.7.3 1.6 2.4 9.4 3.1 11.3.6 1.5.3 1.4-1.5-.2-1.2-1.1-2.2-2.5-2.2-3.1 0-.7-.6-1.8-1.4-2.4-.7-.6-1.7-2.6-2.1-4.4-.4-1.7-.9-2.6-1.2-1.9-.3.7.2 3.1 1.1 5.4.9 2.2 1.4 4.3 1.1 4.6-1 1-6.7-5.3-9.2-10.3-1.5-2.8-2.8-4.5-3-3.9-.2.6.3 2.3 1.1 3.9s1.3 3.2 1 3.7c-.5.8-12.1-6.6-13.5-8.5-.3-.5-1-.9-1.5-.9-3.9-.1-19.4-12.7-19.4-15.9 0-1.4 3.8-.8 9.2 1.5zm-18.9 2.6c1.5.7 2.7 1.7 2.7 2.1 0 1-3.2.4-5.8-1-1.1-.6-2.2-.8-2.4-.5-.3.2-1.1-.3-1.9-1.2-1.1-1.4-1-1.5 1.7-1.1 1.6.3 4.1 1.1 5.7 1.7zm646.6 3.3c-2.9 2.4-9.9 6.6-9.9 6 0-1 9.3-7.3 9.9-6.7.2.2.2.6 0 .7zm-644.2 1c1.2.2 2.6.6 2.9 1 .4.4 1.4.7 2.2.7.8 0 3.8 1.5 6.6 3.4 2.8 1.8 7.4 4.5 10.1 5.9 2.8 1.4 6.4 3.8 8 5.2 1.7 1.5 2.4 2.3 1.7 2-.8-.4-5.2-.7-9.8-.7l-8.4.1-6.3-5.5c-3.4-3-6.5-5.4-6.8-5.4-.4 0-1-.7-1.3-1.6-.5-1.2 0-1.4 2.7-1 1.9.3 4.1.8 5 1.2 1 .3 1.7.3 1.7 0 0-.7-6.5-3.5-9.6-4-1.3-.3-3.1-.9-4.1-1.5-1.5-1-1.4-1.1.7-.6 1.4.3 3.5.6 4.7.8zm121.3.7c1.3.8 1.3 1-.2 1-.9 0-2-.5-2.3-1-.8-1.3.5-1.3 2.5 0zm491.5.1c-7.4 2.4-14.5 3.7-13.2 2.3 1.1-1.2 8.4-3 12.7-3.1l3.5-.2-3 1zM908 810c-.8.5-2.6.9-4 .9l-2.5-.1 2.5-.8c1.4-.4 3.2-.8 4-.9 1.3-.1 1.3 0 0 .9zm-485.9 6.1c2.2 2.2 3.8 4.3 3.5 4.6-.5.6-4.2-2.8-7.5-7-2.5-3.2-.1-1.7 4 2.4zm308.4-.5c-4.1 3.3-11.4 7.4-11.9 6.6-.2-.4.4-2 1.4-3.7 1.6-2.9 5.9-4.9 11.3-5.2 2-.2 1.9.1-.8 2.3zm139.5-.3c0 .7-3.6 5-8 9.5-7.1 7.3-8.4 8.2-11.7 8.3-2.1.1-4.1.1-4.4.1-.4-.1-2.3-.2-4.3-.4-2-.1-3.6-.7-3.6-1.4 0-2.5 14.4-15.1 19-16.6.8-.3 4.1-.6 7.3-.7 4.2-.2 5.7.1 5.7 1.2zm7-.5c0 .5-.8 1.7-1.8 2.8-1 1-3.1 3.7-4.7 5.9-1.7 2.2-4.6 5.8-6.7 7.9-3.1 3.4-3.9 3.8-5.2 2.7-1.4-1.2-.7-2.2 5.7-8.8 3.9-4.2 8-8.4 9-9.4 1.8-2 3.7-2.5 3.7-1.1zm-442.1 7c5.9 7.6 8 11.2 6.8 11.2-3.2 0-15.7-13.2-15.7-16.6 0-1.9 6.3 1.9 8.9 5.4zm443.4-1.2c-1.5 2.7-2.9 5.1-3.2 5.4-.3.3-1.2 1.5-1.8 2.7-3.4 6 .5 2.9 5.2-4.2 1.9-2.8 4.5-6.1 5.9-7.4 2.5-2.4 2.7-2.4 9.6-1.2 3.8.7 7 1.6 7 2.1 0 .4-.9 1.9-2 3.3-3.1 3.9-2.4 4.4 1.3 1 4.2-4 7-5.4 8.7-4.3 1.2.7 1 1.4-1 3.7-6.9 7.6-8.8 9.2-11.8 9.8-3.1.6-3.3.5-2.7-1.4.5-1.6.3-2-.9-1.5-.9.3-1.6.9-1.6 1.3 0 1.6-9.2 5.3-13.3 5.3-8 .2-12.7-.2-12.7-1 0-1.9 14.8-19.7 15.7-18.9.2.2-.9 2.6-2.4 5.3zm-35.6 3c-6.7 6.6-12.5 10.2-14 8.7-.8-.7 11.8-13 15.1-14.7 1.5-.9 3.5-1.5 4.6-1.6 1.3 0-.4 2.3-5.7 7.6zm79.7-4.6c-2.3 2.3-17.4 10.3-17.4 9.3.1-1.1 4.9-6.3 8.1-8.8 1.5-1.2 4.3-2.1 6.9-2.2 4.2-.2 4.3-.1 2.4 1.7zm-206.5 3c-2.3 4-4.7 4.8-2.6.7 2.1-3.8 2.8-4.7 3.8-4.7.6 0 0 1.8-1.2 4zm-371 5.1c3 9.1 3.3 10.9 1.6 10.3-1.4-.6-2.3-2.6-5-10.8-1.5-4.8-1.3-8.9.4-7 .5.5 1.8 3.9 3 7.5zm76.6-3.1c.3.5-.9.3-2.7-.4-1.8-.8-3.4-1.9-3.6-2.6-.5-1.3 5.3 1.4 6.3 3zm283.9-3.2c.3.5-.3 2.5-1.2 4.6-1.4 3.1-3.2 4.6-10.2 8.4-4.7 2.5-11.2 6.3-14.4 8.4-3.3 2.1-6.2 3.8-6.6 3.8-1.2 0-1.1-8.1.2-9.3 2.7-2.6 11.6-8.7 12.7-8.7.6 0 1.1-.3 1.1-.8 0-.4 1.9-1.5 4.3-2.6 10.4-4.6 13.1-5.3 14.1-3.8zm4.1 4.1c-.8 1.7-2 3.1-2.5 3.1-1.5 0-1.2-1.1 1.2-5 2.5-4.1 3.6-2.5 1.3 1.9zm-361-2.1c.6.4 2 3.8 3.1 7.7 1.2 3.8 2.5 7.8 2.9 8.7.9 2.2-1.7 2.5-3.4.4-1.2-1.4-5.1-14-5.1-16.3 0-1.4 1-1.6 2.5-.5zm-17.4 10c9.3 5.7 11.5 8.4 7.2 8.7-5.1.4-3.1 1.4 2.1 1.1 3.6-.2 6 .2 6.7 1 2.2 2.7-5.1 3.4-14.4 1.5-6.1-1.3-6.9-2.5-1.6-2.3 5.2.1 1.8-1.5-4.4-2.2-3.1-.3-7.1-1.4-8.9-2.3-10.6-6.1-15.6-10.2-13.8-11.3.4-.3 4.6-.4 9.2-.2 8.3.3 8.7.4 17.9 6zm117.2 1.4c.6 1.6 1.5 2.8 1.8 2.8.4 0 .9.7 1.3 1.5.3.8.3 1.5.1 1.5-.9 0-9.5-12.2-9.5-13.4.1-1.5 4.7 4.2 6.3 7.6zM824 827c0 1.1-7.3 5-9.5 5-.8 0-1.5-.5-1.5-1 0-.9 1.4-1.2 3.6-.9.4 0 1-.3 1.3-.8.3-.5 1.7-1.4 3.1-2 3.2-1.5 3-1.5 3-.3zm-462.8 4.8c4.9 3.4 5.5 5 6.2 15 .2 3.1.2 3.1-2.4 1.5-6-3.5-7-4.9-9-12-3-10.9-3.3-10.6 5.2-4.5zm93.3-1.9c5.6 1.9 7.3 3.6 11.1 11.5 1.8 3.8 3.8 7.4 4.4 8.1 3.5 4.2-5.2.8-10.6-4.2-5.2-4.8-14.3-20.7-10.1-17.6.6.5 3 1.5 5.2 2.2zm-22.5 1.4c1.9 1 3.9 2.3 4.5 2.8 1.2 1.2-1 1.2-3.3 0-.9-.5-3.4-1.7-5.5-2.7-2.1-1.1-4.1-2.3-4.4-2.7-.7-1.2 4.8.4 8.7 2.6zm290.3-2.4c2.7.1 1 2.1-1.8 2.1-3.5 0-5.9-1.1-4.4-2 .6-.4 1.9-.6 2.8-.5.9.2 2.4.4 3.4.4zm4.7 2c0 .6-.4 1.3-1 1.6-.5.3-1-.1-1-.9 0-.9.5-1.6 1-1.6.6 0 1 .4 1 .9zm-9.6 3.2c-1.8.7-1.7.8.4 1.5 1.2.3 2.2 1 2.2 1.4 0 1.6-4.1 2.1-7.8 1-7.2-2.3-9.1-3.4-8.1-4.6.9-1.1 4.9-.7 9.2 1.1 1 .4 1.7.3 1.7-.4 0-.6-.7-1.1-1.5-1.1s-1.5-.4-1.5-.9 1.6-.4 3.6.2c3 .9 3.3 1.2 1.8 1.8zm91.9.6c-.7.2-2.1.2-3 0-1-.3-.4-.5 1.2-.5 1.7 0 2.4.2 1.8.5zM441 839.2c3 1.2 8 3.8 11 5.9 3 2.1 9 5.9 13.2 8.6 4.2 2.6 7.2 5 6.6 5.4-.6.4-3.5.1-6.4-.6-3-.7-5.4-1-5.4-.8 0 1.1-12-6.2-15.7-9.7-2.4-2.1-6.4-5.7-9-8-5.3-4.6-4.6-4.7 5.7-.8zm31.7 5.6c1.5 3.2 3.1 5.9 3.4 6.2.3.3.8 1.3 1.2 2.3.6 1.6.5 1.7-1.4.3-3.4-2.3-8.5-10.7-9.3-15.2-.5-2.5-.4-2.6 1.4-.9 1 .9 3.1 4.2 4.7 7.3zm236.5-6.1c5.3 2 5.6 2.2 3.9 3.3-1.6.9-6.1-.4-10.6-3.2l-3-1.8h2.7c1.5 0 4.7.7 7 1.7zm-5.9 2.7c4.1 2.1 4.5 2.6 3 3.4-1 .6-3.1 1.2-4.8 1.5-4 .7-8.7 1.7-10.5 2.4-3.1 1.2-11.3 1.3-12.6.2-1.7-1.4-.3-2.6 8.1-7.1 6.3-3.3 10.7-3.4 16.8-.4zm-330 6.4c.3 1.8.2 3.2-.3 3.2-.9 0-4-7.4-4-9.7 0-2.7 3.8 2.9 4.3 6.5zm295.9-2.2c-.9 2-1.8 3.1-2 2.4-.6-1.6 1.9-7.1 2.9-6.4.4.2.1 2.1-.9 4zm-186.7 7.1c2.5 4 4.1 7.3 3.6 7.3-1.9 0-8.9-9.7-11.1-15.5-1.1-2.9-1.1-2.9 1-1 1.1 1 4.1 5.2 6.5 9.2zM350 848l2.5.7-2.5.7c-1.4.3-3.8.4-5.5.2-1.6-.3-3.9-.5-5-.6-1.4-.2-1.1-.5 1-1 3.8-1 6.4-1 9.5 0zm29 3.7c0 .7-.4 1.3-1 1.3-.5 0-.9-.3-.8-.8.1-.4-.4-1.8-1.1-3.2l-1.4-2.5 2.2 1.9c1.1 1.1 2.1 2.5 2.1 3.3zm285.4-3.9c.7 1.2-3.8 7.6-6.8 9.6-3.4 2.2-3.3 1.6 1-4.9 3.6-5.4 4.8-6.3 5.8-4.7zm-307.1 5c.4.1 1.3.2 2 .3 2.2.2-3.7 1.7-7 1.8-1.7.1-4.4-.4-6-1.1l-2.8-1.1 3-.6c2.5-.6 6.6-.3 10.8.7zm320.2-.9c-1.4 1.2-7.7 3.2-8.3 2.6-1.2-1.2 2.4-3.5 5.6-3.5 2.1 0 3.2.4 2.7.9zm-298.6 8.6c1.2 1.2.5 1.6-4.3 3-5.5 1.6-5.8 1.6-10.4-.5-9.7-4.4-9.9-4.8-3-7.6l5.3-2 5.5 2.9c3 1.5 6.1 3.4 6.9 4.2zm8.1-3.9c4.4 4 5.5 6.7 1.4 3.5-1.5-1.2-3.2-2.1-3.9-2.1-1.2 0-2.5-2.1-2.5-4.1 0-1.5.8-1.1 5 2.7zm102.9 1.8c-.3.3-1.1-.5-1.8-1.7-1.3-2.1-1.2-2.1.5-.5 1 1 1.6 2 1.3 2.2zm-103.4 5.7c1.1 1.7-.3 2.3-6 2.4-5.9 0-7.3-1.1-2.7-2.1 1.5-.3 3.2-.7 3.7-.9 2.1-.7 4.4-.5 5 .6zm100.5 3.4c2.9 1.4 5 2.8 4.8 3-.5.5-15.6-4.3-17.7-5.6-3.6-2.2 7.9.1 12.9 2.6zm-35.5 4.4c4.2 1.1 8.5 3.7 8.5 5 0 .4-2.1.6-4.7.5-4.6-.3-6.5-.6-12.3-1.7-1.4-.3-4.7-.8-7.3-1.2-3-.4-4.7-1.1-4.4-1.8.8-2.4 12.6-2.9 20.2-.8zm291.5 3.7c3 .4 7.9 1.2 10 1.6.8.2 3 1 4.8 1.7 3.1 1.3 3.2 1.5 1.5 2.5-1 .6-2 1.1-2.3 1.2-1.1.2-4.6 1.6-6 2.3-1.9 1-23.6-9-22.3-10.2.7-.8 3.6-.6 14.3.9zm-44 3.2c0 .9-11.9 6-15.5 6.7-1.1.2-2 .4-2 .5 0 .2-3.5.9-7.2 1.4-1.8.3-3.3.1-3.3-.4 0-.9 9.2-4.6 13.2-5.4 1.3-.2 4.1-.7 6.3-1.1 2.2-.4 4.7-1.1 5.5-1.6 1.9-1.1 3-1.1 3-.1zm-299 2.8c0 .6-8.3 4.4-10.8 4.9-.9.2-4.6 1.1-8.2 2-5.1 1.3-7.2 1.4-9.4.5-3-1.1-2.9-2.2.2-2.6.9-.1 4.2-.4 7.2-.8 3-.3 8.7-1.4 12.5-2.5 8.5-2.2 8.5-2.2 8.5-1.5zm369 1.3c0 1.7-11.2 6.3-13.7 5.6-3.9-.9-2.2-2.8 4.8-5.1 6-2 8.9-2.2 8.9-.5zm-367.4 6c-2 3.8-2 4.7-.1 3.1 2.4-2 1.8.7-.7 3.1-2.6 2.4-10.4 7.9-11.2 7.9-1.2 0-.5-3.8.9-5 .8-.7 1.5-1.9 1.5-2.6 0-1.9 10.3-12.1 10.7-10.7.3.7-.3 2.5-1.1 4.2zm336.4 1.8c2.8 7 2.6 6.7 4 5.8.8-.5.8-1.1.1-1.9-.6-.7-1.2-2.2-1.4-3.4-.2-1.2-.6-2.5-1-2.8-1.2-1.2-.8-2.4.8-2.4 2.7 0 11.4 4.9 12.5 7.1 1.8 3.3 2.4 10.9.8 10.9-4 0-16.8-6.6-16.8-8.7v-1.6c0-.1-.7-2.4-1.5-5-1.9-6.4-.3-5.1 2.5 2zm43.9-5.2c.7.8-.3 1.3-3.1 1.7-1.4.2-3.2.8-3.9 1.4-4.7 3.6-12.8 5-14.4 2.4-.7-1.1 4.2-4.1 9-5.6 3.6-1.1 11.2-1 12.4.1zm-453.7 2.9c.3-.2 3.3-.6 6.6-.8 4.9-.3 6.6 0 8.3 1.5 4.2 3.6 2.2 4.2-13.9 4.4-9.7 0-15.9-.3-17.3-1.1-3.3-1.7-1.3-2.7 7.4-3.8 2.2-.2 4.1-.7 4.4-1 .3-.3 1.3-.1 2.3.4 1 .5 2 .7 2.2.4zm22.8 2.1c1.7 1.8 2 2.5.8 2.5-.8 0-2.5-1.1-3.8-2.5-1.7-1.8-2-2.5-.8-2.5.8 0 2.5 1.1 3.8 2.5zm4-1.7c0 .5 1 1.4 2.3 2 1.2.6 1.6 1.1.9 1.1-1.9.1-5.2-1.8-5.2-2.9 0-.6.5-1 1-1 .6 0 1 .4 1 .8zm6.5 1c-.3.3-1.1 0-1.8-.7-.9-1-.8-1.1.6-.5 1 .3 1.5.9 1.2 1.2zm-55 3.2c.3.5.2 1-.4 1-.5 0-1.3-.5-1.6-1-.3-.6-.2-1 .4-1 .5 0 1.3.4 1.6 1zm83.5 1.9c-.6 1.2-.8 2.1-.5 2.1.4 0-.1.7-.9 1.6-.9.8-1.6 2.2-1.6 2.9 0 1.6-2.7 4.5-4.1 4.5-1.6 0 0-3.8 3.9-9 3.6-4.9 5.3-6 3.2-2.1zm-8 5.6c-2.3 3.6-4.6 6.5-5.2 6.5-1.1 0 .6-3.3 5-9.3 5-7 5.2-4.9.2 2.8zm378.3-.8c1.1 2.9 1.3 4.4.6 4.9-.6.3-1.4.2-1.9-.2-1.1-1.3-3-7.4-3-9.8 0-1.8.2-1.8 1.4-.6.7.8 2 3.4 2.9 5.7zm-458.7-3.5c.4.7.4 1 0 .6-.5-.4-1.9-.3-3.2.2-1.4.6-2.4.6-2.4 0 0-.7 1.6-1.4 4.2-1.9.4 0 1 .5 1.4 1.1zm72.4.1c0 .7-.9 2.3-1.9 3.4-1.1 1.2-1.7 2.4-1.3 2.7.3.4-.4.9-1.7 1.3-1.2.3-1.8.9-1.3 1.2 1.6 1-2.5 5.2-5.3 5.5-1.4.2-2.5.2-2.5 0 0-.9 6.5-9.8 9.1-12.4 3.3-3.2 4.9-3.8 4.9-1.7zm95.5-.4c-1.7 1.7-23.7 7.1-25.2 6.2-2.6-1.4 3.3-3.1 20.2-5.7 2.2-.3 4.2-.8 4.4-1 .2-.2.7-.4 1-.4.3 0 .1.4-.4.9zM366 897.1c0 3.1-9.5 14.8-12.2 15-.7 0-2.1.2-3 .4-11.6 2.2-21.1 2.2-28.8 0-12.9-3.6-23.1-6.1-26.5-6.5-.5 0-.1-.7.9-1.5 1.4-1.1 2.2-1.2 2.7-.4.4.7 3.2-.1 8.5-2.7 6.1-2.9 9.4-3.8 14.2-4 3.4-.2 6.2 0 6.2.3s-1.4 2.3-3.1 4.4c-3.7 4.7-3.1 4.9 1.9 1 4.1-3.3 8.9-5.4 9.6-4.3.2.4-2 3.3-4.9 6.4-3 3.2-5 6-4.5 6.3.4.3 1.7-.5 2.7-1.7 1-1.3 4.3-4.3 7.3-6.8 5-4.2 5.9-4.5 11.5-4.7 5.4-.1 13.6-1.1 14.3-1.7.6-.6 3.2-.2 3.2.5zm12.2 1.7c-.7.2-1.2.9-1.2 1.7 0 .7-.7 1.8-1.5 2.5s-1.3 1.6-1 2c.8 1.3-2.6 5-4.6 5-2.5 0-2.4-.4.9-4.8 5.1-6.9 7.6-9.4 8.1-8.1.2.7-.1 1.5-.7 1.7zm387.7-1.8c1 .5 2.4 2.3 3.1 4.1 1.1 2.6 1.1 3.2 0 3.9-1.9 1.2-4.9-.6-6-3.6-1.9-5-.9-6.5 2.9-4.4zm-136.5 1.4c-.5 1.3-4.3 2.6-9.1 3.1-4.3.4-2.3-1.1 3.5-2.7 3.1-.8 5.8-1.6 5.9-1.7.1 0 0 .5-.3 1.3zm-28.4 1c0 .2-.7.6-1.5 1-.8.3-1.5.1-1.5-.4 0-.6.7-1 1.5-1s1.5.2 1.5.4zm-137.8 9.9c-2 3.9-4.6 8.2-5.7 9.4-2.1 2.3-9.5 5.9-9.5 4.6 0-.8 7-11.4 8.1-12.3.3-.3 1.4-2 2.3-3.7 1.6-3.2 6.3-6.6 7.8-5.7.4.3-.9 3.7-3 7.7zm-23.4-6.1c-.5 1.5-4.8 2.4-4.8 1s1.2-2.2 3.3-2.2c1 0 1.7.5 1.5 1.2zm16.2 3.3c0 .2-2.1 3.9-4.7 8.1-6.6 10.6-13.7 15.9-8.3 6.1 3.9-7.2 13-17.1 13-14.2zm-9.1 3.6c-5.8 12.4-8.6 16.5-13 18.7-4.3 2.1-15.8 4.3-13.3 2.5.7-.4 3.5-4.2 6.3-8.3 7.5-11.1 7.5-11.1 14.3-13.5 3.5-1.2 6.4-2.1 6.6-2 .1.1-.2 1.3-.9 2.6zm-17.9-1.6c0 .2-1.3 1.1-3 2-3.3 1.7-4 1-1.2-1.1 1.7-1.3 4.2-1.9 4.2-.9zm139 .5c0 .5-.6 1-1.2 1-.7 0-2.5.7-4 1.4-1.6.8-4 1.7-5.5 1.9-1.6.3-4.1 1-5.6 1.6-3.4 1.3-4 1.4-3.3.2.7-1.1 12.9-5.8 16.6-6.4 1.4-.2 2.6-.5 2.8-.6.1 0 .2.3.2.9zm-147.7 1.8c-1.5.9-6.6 4.9-16.2 12.9-4.2 3.4-7.8 5.9-8.1 5.7-.4-.5 8-8.7 12.2-11.8 5.7-4.2 12.3-8.4 12.8-8 .2.3-.1.8-.7 1.2zm6.7 6.6c0 .2-.8 1-1.7 1.7-1.6 1.3-1.7 1.2-.4-.4 1.3-1.6 2.1-2.1 2.1-1.3zm-5.7 9c-2 3-4.1 5.2-4.6 4.9-.7-.4.7-2.7 5.6-9.1.5-.6 1.4-1.2 1.9-1.2s-.8 2.4-2.9 5.4zM416 928c-1.2 1.7-2.4 2.9-2.7 2.6-.3-.3.5-1.9 1.7-3.6 1.2-1.7 2.4-2.9 2.7-2.6.3.3-.5 1.9-1.7 3.6zm105.7-2.4c-.3.3-5.9 2.8-12.3 5.4-6.5 2.6-11.1 5-10.3 5.3.8.2.6.3-.5.1-2.4-.4-10.5 2.6-22.5 8.3-5.2 2.5-11.7 5.3-14.5 6.4-2.8 1.1-6 2.3-7.1 2.8-1.1.5-4.7 1.9-8 3.1-3.3 1.2-6.8 2.6-7.7 3.1-.9.5-1.9.5-2.2 0-.4-.7 7.5-4.9 10.4-5.6.9-.2 8.5-3.7 10-4.6.8-.5 2.2-1.2 3-1.5.8-.3 6.7-2.8 13-5.4 6.3-2.7 14.7-6 18.5-7.5 3.9-1.5 9.3-3.6 12-4.6 2.8-1.1 6.2-2.1 7.6-2.4 1.5-.3 3.9-1.2 5.5-2 2.9-1.5 6.3-2.1 5.1-.9zm111.3.9c1.9.7 2.8 1.3 2 1.3-.8 0-3.1-.6-5-1.3-1.9-.7-2.8-1.3-2-1.3.8 0 3.1.6 5 1.3zm-223.6 3c-1.4 1.9-2.9 3.5-3.1 3.5-.5 0 .7-1.8 3.6-5.3 2.6-3.1 2.3-1.8-.5 1.8zm-4.4 1.4c0 1.2-5.1 5.3-5.8 4.6-.6-.6 3.8-5.5 5-5.5.4 0 .8.4.8.9zm254.5 6.7c5.2 1.7 6.1 2.2 3.4 2-2-.2-6.5-1.3-10-2.4-3.5-1.1-7.3-2.3-8.4-2.6-1.1-.3.2-.3 3 0 2.7.3 8.1 1.7 12 3zm79.5 11c0 .2-.7.4-1.5.4s-1.5-.4-1.5-1c0-.5.7-.7 1.5-.4.8.4 1.5.8 1.5 1zm19 1.4c0 .5-.6 1-1.4 1-.8 0-1.8-.5-2.1-1-.3-.6.3-1 1.4-1 1.2 0 2.1.4 2.1 1zm-5.7 2.7c-.7.2-1.9.2-2.5 0-.7-.3-.2-.5 1.2-.5s1.9.2 1.3.5zm-339.6 21.4c-.9.6-2.6 1.2-3.6 1.4-1 .2-4 1.1-6.6 2-2.6.8-5 1.3-5.3 1-.9-.9.4-1.6 3.7-2.1 1.8-.3 4.9-1.1 6.9-1.9 4.6-1.7 7.5-1.9 4.9-.4zm-23.7 4.3c0 .2-1.1.6-2.5.8-1.3.3-2.2.1-1.9-.3.5-.9 4.4-1.3 4.4-.5zm1.9 5.7c-2.9 2.1-8.9 4-8.9 2.8 0-1.1 7.6-4.6 9.8-4.6.9 0 .5.7-.9 1.8z"/><path d="M183.7 381.7c-.4.3-.7 1.1-.7 1.7 0 .6.5.5 1.2-.2.6-.6.9-1.4.7-1.7-.3-.3-.9-.2-1.2.2zM151.9 633.1c.5.6.7 1.8.4 2.5-.3.8-.1 1.4.5 1.4 1.3 0 .9-2.7-.6-4-.8-.7-.9-.7-.3.1zM922 686c-.9.6-1 1-.3 1 .6 0 1.5-.5 1.8-1 .8-1.2.4-1.2-1.5 0zM916 692c-.9.6-1 1-.3 1 .6 0 1.5-.5 1.8-1 .8-1.2.4-1.2-1.5 0zM197 695.7c0 .5 1.2 2 2.8 3.4l2.7 2.4-2.5-3c-1.4-1.7-2.6-3.2-2.7-3.4-.2-.2-.3 0-.3.6zM235.4 157.5c-.6 2.3 0 4.5 1 3.4 1-1.2 1.5-5.9.6-5.9-.5 0-1.2 1.1-1.6 2.5zM239 171.1c0 1.1.5 1.7 1 1.4.6-.3 1-1.3 1-2.1s-.4-1.4-1-1.4c-.5 0-1 .9-1 2.1zM270 201.6c0 .9.5 1.4 1.2 1.2 1.8-.6 2.1-2.8.4-2.8-.9 0-1.6.7-1.6 1.6zM285.3 224.5c-.8 2.1.1 2.8 2.6 2 1.2-.4 1.8-1.2 1.4-2.1-.7-1.9-3.2-1.8-4 .1zM111.6 298.9c-1.6 1.8-1.6 2 .6 3.5 2 1.4 2.4 1.4 3.8.1 1.1-1.2 1.2-2 .4-3.2-1.5-2.5-2.8-2.6-4.8-.4zM340.8 320.2c-.7 2 .3 4.9 1.6 4.5 1.2-.4 1-3.7-.4-5-.4-.5-1-.3-1.2.5zM339.1 453.9c-1.4 3-.7 4.6 2.4 4.9 12.5 1.2 16.9 3.8 18.2 10.7.9 4.8 1 156.9.1 160.5-.4 1.4-.7 3-.7 3.7-.2 2.7-5.5 6.2-10.5 6.8-9.8 1.4-9.8 1.4-10.3 4.5-.2 1.1.3 2 1 2.1.6 0 5.9-.1 11.7-.2 14.5-.2 33.6-.2 45.5.1 13.1.3 12.5.4 12.5-2.5 0-1.4-.6-2.5-1.2-2.6-4.4-.2-8.5-.8-12.4-1.9-4.8-1.4-6.7-3.8-8-10.1-.7-3.6-1.3-77.6-.6-79.6.4-1.2 2.8-1 9.6.8 6.1 1.6 12.6 8.7 25.5 28 6.7 9.9 12.1 18.4 12.1 18.8 0 .5.4 1.1.8 1.3 1 .4 7.2 9.6 7.2 10.8 0 .4.4 1 .8 1.2 1.9.8 15.2 22.7 15.2 25 0 2.1-.8 2.9-3.7 4.1-2.1.8-4.8 1.4-6 1.2-1.5-.1-2.2.4-2.6 2.1-.6 3.2.3 4.1 3.8 3.7 3.9-.4 50-.4 54.3 0 2.5.3 3.2-.1 3.2-1.5 0-1 .1-2.1.1-2.6.2-.9-6.4-4.1-7.3-3.5-.5.2-.8.1-.8-.4 0-.4-1.4-1.4-3.1-2.2-4.3-1.9-10.6-8.6-18-19.2-3.5-5-6.9-9.6-7.4-10.3-.6-.6-8.9-12.1-18.4-25.6-9.6-13.5-17.7-24.7-18-25-.3-.3-1-1.3-1.6-2.2-.5-.9-3.8-5.5-7.3-10.3l-6.3-8.6 21.8-27.7c12-15.2 22.2-28.3 22.8-29.1 6.8-9.2 19.6-17.9 28.8-19.6 2-.4 3.8-1.1 3.8-1.6.7-4.7 2.4-4.4-27.1-4.4-26.1 0-27.5.1-27.8 1.9-.5 2.3 1.4 3.6 5.1 3.6 4.2 0 10.6 3.6 11.3 6.4 2 8.2-1.5 14.3-27.4 47.1-15.1 19.2-19.5 23.6-26.8 27-6.6 3-15.1 4.7-16.2 3.1-1.1-1.4-.8-67.9.3-72.6 1.6-7 4.4-9.3 13.1-10.5 7.5-1 8.4-1.4 8.4-3.9v-2.3l-29 .1c-15.9.1-31.5-.1-34.6-.4-4.4-.5-5.7-.3-6.3.9zM641.2 455.9c.3 2.4.8 2.7 5.8 3.2 6.6.8 10.9 2.4 12.7 4.7 3.4 4.4 3.6 9.1 3.6 84.2 0 71.7-.3 81.6-2.5 86.5-1.4 3.2-6.3 5.7-12.2 6.2-6.9.6-7.6.9-7.6 3.6v2.3l48.8-.2c26.8 0 50.3-.4 52.2-.8 1.9-.5 6.9-2.1 11.2-3.6 22.1-8.1 34.7-24.8 35.3-47 .4-17.2-7.4-31.4-22.4-40.2-4.8-2.9-16.8-7.2-23.6-8.5-2.2-.4-4.3-.8-4.7-.9-.5-.1-1.8-.2-3-.3-3.1-.1-1.3-1.6 4.3-3.4 21.6-7.2 35.3-25.2 35.1-46.2-.1-10.8-4.7-21.5-12.1-28.2-6.1-5.5-16.7-10.5-25.1-11.9-1.4-.3-3.4-.8-4.5-1.1-1.1-.4-22.2-.8-46.8-.8l-44.8-.1.3 2.5zM724 460c7.9 2.2 12 5 17.5 12.2 1.5 1.8 4.3 9.1 5.1 13 .9 4.1.9 24.4.1 27.8-2.8 12-9.3 22.2-16.7 26-6.3 3.2-12.3 4.2-26.8 4.6l-14.3.3.3-37.7c.3-37.4.3-37.7 2.6-41.4 1.8-2.8 3.4-4.1 7-5.1 5.5-1.7 18.7-1.6 25.2.3zm1.1 89.4c15.1 2.1 26 9.1 30.9 20 3.8 8.4 4.2 10.7 4.4 23.1.1 11.4-.9 17.7-3.8 24.1-7.4 16.1-22.3 23.6-47.1 23.7-10 0-16.7-2.5-18.1-6.6-.5-1.2-1-2.9-1.3-3.7-.2-.8-.6-19.5-.8-41.6l-.4-40.1 15.8.2c8.7.2 17.9.5 20.4.9zM589.5 503.5c-2.2.8-4.6 2.2-5.3 3.2-2 2.8-1.1 7.3 1.9 9.6 2.3 1.7 3.1 1.8 6.2.8 1.9-.7 3.8-1.9 4.1-2.7 1.1-2.7.6-6.1-.9-7.4-2.2-1.9-.9-2.8 3.2-2.5 2.1.2 3.9.4 4.1.6.1.1.5.2 1 .3 2 .4 6.5 4.2 7.7 6.6 1.7 3.3 1.1 8.7-1.3 12-2.6 3.4-16.2 9.9-24.2 11.5-.3.1-3.6 1.1-7.5 2.4-3.8 1.2-7.7 2.4-8.6 2.6-.9.2-3.9 1.5-6.6 2.9-15.6 7.9-16.5 25.9-1.5 31 6.5 2.2 16.5-.1 19.6-4.6 5.4-7.6-3.5-16.8-9.9-10.4-3.4 3.4-3.2 7 .5 9.8 2.6 1.8 2.8 2.3 1.5 3.1-3.3 1.8-10.4 1-13.9-1.7-4.2-3.2-5.2-6.6-3.1-11 1.8-3.8 7.8-7.1 19.2-10.7l7.2-2.3 4 2.8c9.1 6.3 10.8 21.1 3.3 29.3-3.1 3.4-10.5 7.9-14.2 8.7-1.4.3-4.1.9-6.1 1.4-4.7 1.2-17.2.8-22.6-.7-10.6-2.9-18.8-10.4-20.9-19.1-1.1-4.9-1.2-12.3-.1-13.8.5-.6.7-1.2.3-1.2-1.2 0 2.2-5.5 5.1-8.2 3.2-3.1 9.9-6.2 11.4-5.3.5.4 1.9.8 3.2 1.1 1.2.2 3.2.6 4.4.8 1.1.3 2.9-.2 4-1 1.7-1.4 1.7-1.4-.1-2.9-1.4-1.1-3.5-1.4-7.6-1l-5.7.5-2.7-5.1c-4.5-8.1-3.6-17 2.2-22.2 3.3-3 11.2-3.9 16.5-1.8 3.3 1.3 3.4 2.4.3 3.9-1.3.6-2.8 2.4-3.4 4.1-.9 2.7-.8 3.4 1.1 5.6 3.2 3.5 7.5 3.7 10.7.5 5.8-5.8-2.1-16.3-13.2-17.5-5.9-.6-14.6 1.2-18.9 4-3.5 2.3-7 7.8-7.1 11.3-.2 5.9 3.1 11.8 8.8 15.3 3.3 2 3.5 2.3 1.8 3.3-1.1.6-2.1 1.1-2.4 1.2-1.1.2-4.6 1.8-5.5 2.6-9 6.9-13.3 13.9-13.6 22.3-.8 18.7 16.9 33.4 40.6 33.8 11.8.2 16.3-.6 24-4.3 12.1-5.8 19.2-16.9 18.3-28.9-.5-7.3-3.4-12.8-8.6-16.6-2.2-1.7-4.1-3.2-4.1-3.5-.1-.3 3.2-1.6 7.2-2.9 15.2-5 21.7-10.3 23.2-19.1 1.4-8-2.6-15.9-9.9-19.7-4.2-2.2-12.3-2.6-17.1-.8zM1125.5 526c-.3.5-.2 1 .4 1 .5 0 1.3-.5 1.6-1 .3-.6.2-1-.4-1-.5 0-1.3.4-1.6 1zM128 536.1c0 .5.5.7 1 .4.6-.3 1-.8 1-1.1 0-.2-.4-.4-1-.4-.5 0-1 .5-1 1.1zM126.2 672.2c-.7.7-1.2 2-1.2 3.1 0 2.4 3.3 1.9 3.8-.7.5-2.4-1.1-3.9-2.6-2.4zM667 788.9c0 .5.5 1.3 1 1.6.6.3 1 .2 1-.4 0-.5-.4-1.3-1-1.6-.5-.3-1-.2-1 .4zM390.2 829.7c.4 2 2.2 2.1 2.6.2.2-.9-.4-1.6-1.3-1.6s-1.5.7-1.3 1.4zM395 854c0 .5.4 1 .9 1 .6 0 1.3-.5 1.6-1 .3-.6-.1-1-.9-1-.9 0-1.6.4-1.6 1zM742.7 864.6c-.8.8.1 2.4 1.4 2.4.5 0 .9-.7.9-1.5 0-1.5-1.2-2-2.3-.9zM792 867.5c-1.1 1.3-.6 3.5.8 3.5 1.8-.1 3.2-1.8 2.6-3.3-.8-2.1-1.8-2.1-3.4-.2zM666.4 869.4c-.8 2.2-.2 2.7 1.6 1.6 1.2-.7 1.2-1.2.3-2.1-1-1-1.4-.9-1.9.5zM670.5 874c-.4.6-.3 1.6.3 2.2.6.6 1.2.6 1.7-.2.4-.6.3-1.6-.3-2.2-.6-.6-1.2-.6-1.7.2zM691.6 891.6c-1 2.6-.7 3.4 1.4 3.4 1.3 0 2-.7 2-1.9 0-2.4-2.6-3.5-3.4-1.5zM704.3 890.7c-1.4.5-1.8 3.5-.6 4.6 1 1.1 3.3-1.3 3.3-3.4 0-1.9-.5-2.1-2.7-1.2zM655 897c-1.2.7-1.2 1.2-.2 2.2.9.9 1.5.9 2.4 0 1.6-1.6-.2-3.4-2.2-2.2zM731 901.9c0 .5.5 1.3 1 1.6.6.3 1 .2 1-.4 0-.5-.4-1.3-1-1.6-.5-.3-1-.2-1 .4zM725.5 903.1c-.9 1.4-.2 2 1.4 1 .8-.6.9-1.1.3-1.5-.6-.3-1.4-.1-1.7.5zM767.5 933.9c-.7 1.2 1.2 2.4 2.5 1.6 1.1-.7.4-2.5-1-2.5-.5 0-1.1.4-1.5.9z"/></svg>